<?xml version="1.0" standalone="no"?>
<!DOCTYPE svg PUBLIC "-//W3C//DTD SVG 20010904//EN"
 "http://www.w3.org/TR/2001/REC-SVG-20010904/DTD/svg10.dtd">
<svg version="1.0" xmlns="http://www.w3.org/2000/svg"
 width="120.000000pt" height="120.000000pt" viewBox="0 0 120.000000 120.000000"
 preserveAspectRatio="xMidYMid meet">
<metadata>
Created by potrace 1.14, written by Peter Selinger 2001-2017
</metadata>
<g transform="translate(0.000000,120.000000) scale(0.100000,-0.100000)"
fill="#000000" stroke="none">
<path d="M27 1108 l28 -43 5 -351 5 -350 38 -78 c63 -126 162 -190 347 -223
101 -18 273 -12 365 13 177 47 291 168 315 331 5 37 10 202 10 367 l0 298 31
39 31 39 -261 0 -261 0 0 -134 c0 -74 -3 -141 -6 -149 -3 -10 6 -20 27 -31 31
-15 34 -15 55 5 23 21 24 21 50 4 15 -10 37 -29 50 -44 l23 -26 -27 -28 c-22
-23 -24 -31 -16 -55 8 -23 16 -27 52 -30 l42 -3 0 -69 0 -69 -42 -3 c-35 -3
-43 -7 -51 -31 -8 -24 -5 -33 17 -56 l26 -27 -47 -47 -47 -47 -24 24 c-24 24
-26 24 -58 8 -29 -13 -34 -21 -34 -49 l0 -33 -70 0 -70 0 0 33 c0 30 -4 35
-37 45 -31 10 -40 9 -55 -5 -17 -15 -20 -15 -45 3 -15 11 -36 32 -47 47 -18
25 -19 29 -4 43 15 15 14 20 -3 58 -15 34 -22 40 -44 38 -25 -3 -25 -3 -25 67
0 68 1 70 26 73 20 2 30 12 41 41 14 34 14 40 0 55 -14 15 -12 20 16 53 53 59
64 65 87 44 15 -13 25 -15 47 -8 l28 10 3 146 3 147 -261 0 -260 0 27 -42z"/>
<path d="M591 787 c-6 -15 -33 -62 -61 -104 -47 -72 -55 -95 -50 -153 5 -57
63 -110 120 -110 42 0 90 32 112 73 28 57 20 106 -32 179 -23 33 -50 78 -60
101 l-19 41 -10 -27z m-12 -159 c16 -45 -22 -94 -53 -69 -20 17 -21 55 0 75
22 22 43 20 53 -6z"/>
</g>
</svg>
