<svg width="33" height="32" viewBox="0 0 33 32" fill="none" xmlns="http://www.w3.org/2000/svg">
<path d="M22.8688 22.6667C21.3961 22.6667 20.2021 23.8606 20.2021 25.3333C20.2021 26.8061 21.3961 28 22.8688 28C24.3416 28 25.5355 26.8061 25.5355 25.3333C25.5355 23.8606 24.3416 22.6667 22.8688 22.6667ZM22.8688 22.6667H12.5941C11.9791 22.6667 11.6714 22.6667 11.4183 22.5573C11.195 22.4608 11.0013 22.305 10.8601 22.1069C10.7001 21.8823 10.6369 21.5817 10.5081 20.9804L7.23079 5.68636C7.10193 5.08501 7.03664 4.78434 6.87663 4.55973C6.7355 4.36164 6.54248 4.20588 6.31921 4.1094C6.06606 4 5.7592 4 5.14419 4H4.20215M8.20215 8H25.3664C26.3288 8 26.8098 8 27.1327 8.20048C27.4157 8.37608 27.6224 8.65117 27.7127 8.97168C27.8158 9.33758 27.6835 9.79995 27.4168 10.7246L25.5706 17.1246C25.4112 17.6775 25.3314 17.954 25.1696 18.1591C25.0268 18.3402 24.8385 18.481 24.6249 18.568C24.383 18.6666 24.0953 18.6667 23.5199 18.6667H10.5094M10.8688 28C9.39606 28 8.20215 26.8061 8.20215 25.3333C8.20215 23.8606 9.39606 22.6667 10.8688 22.6667C12.3416 22.6667 13.5355 23.8606 13.5355 25.3333C13.5355 26.8061 12.3416 28 10.8688 28Z" stroke="#ffffff" stroke-width="2" stroke-linecap="round" stroke-linejoin="round"/>
</svg>
