<?xml version="1.0" encoding="utf-8"?>
<!-- Generator: Adobe Illustrator 13.0.1, SVG Export Plug-In . SVG Version: 6.00 Build 14948)  -->
<!DOCTYPE svg PUBLIC "-//W3C//DTD SVG 1.1//EN" "http://www.w3.org/Graphics/SVG/1.1/DTD/svg11.dtd">
<svg version="1.1" id="Слой_1" xmlns="http://www.w3.org/2000/svg" xmlns:xlink="http://www.w3.org/1999/xlink" x="0px" y="0px"
	 width="30px" height="30px" viewBox="0 0 30 30" enable-background="new 0 0 30 30" xml:space="preserve">
<g>
	<path fill="#009D48" d="M21,4.451v3c0,0.553-0.447,1-1,1H10c-0.553,0-1-0.447-1-1v-3c0-0.553,0.447-1,1-1h2c0-1.656,1.344-3,3-3
		s3,1.344,3,3h2C20.553,3.451,21,3.898,21,4.451z M16.1,3.451c0-0.607-0.492-1.1-1.1-1.1s-1.1,0.492-1.1,1.1s0.492,1.1,1.1,1.1
		S16.1,4.059,16.1,3.451z M24,4.451h-2v3h1.688C23.859,7.451,24,7.592,24,7.764v18.375c0,0.172-0.141,0.313-0.313,0.313H6.313
		C6.141,26.451,6,26.311,6,26.139V7.764c0-0.172,0.141-0.313,0.313-0.313H8v-3H6c-1.104,0-2,0.896-2,2v21c0,1.104,0.896,2,2,2h18
		c1.104,0,2-0.896,2-2v-21C26,5.347,25.104,4.451,24,4.451z M14.229,13.451h7.541c0.127,0,0.229-0.103,0.229-0.229v-0.541
		c0-0.127-0.103-0.229-0.229-0.229h-7.541c-0.127,0-0.229,0.103-0.229,0.229v0.541C14,13.349,14.103,13.451,14.229,13.451z
		 M14.229,18.451h7.541c0.127,0,0.229-0.103,0.229-0.229v-0.541c0-0.127-0.103-0.229-0.229-0.229h-7.541
		c-0.127,0-0.229,0.103-0.229,0.229v0.541C14,18.349,14.103,18.451,14.229,18.451z M14.229,23.451h7.541
		c0.127,0,0.229-0.103,0.229-0.229v-0.541c0-0.127-0.103-0.229-0.229-0.229h-7.541c-0.127,0-0.229,0.103-0.229,0.229v0.541
		C14,23.349,14.103,23.451,14.229,23.451z M11.5,10.451h-3c-0.276,0-0.5,0.224-0.5,0.5v3c0,0.276,0.224,0.5,0.5,0.5h3
		c0.276,0,0.5-0.224,0.5-0.5v-3C12,10.675,11.776,10.451,11.5,10.451z M11,13.451H9v-2h2V13.451z M11.5,15.451h-3
		c-0.276,0-0.5,0.224-0.5,0.5v3c0,0.276,0.224,0.5,0.5,0.5h3c0.276,0,0.5-0.224,0.5-0.5v-3C12,15.675,11.776,15.451,11.5,15.451z
		 M11,18.451H9v-2h2V18.451z M11.5,20.451h-3c-0.276,0-0.5,0.224-0.5,0.5v3c0,0.276,0.224,0.5,0.5,0.5h3c0.276,0,0.5-0.224,0.5-0.5
		v-3C12,20.675,11.776,20.451,11.5,20.451z M11,23.451H9v-2h2V23.451z"/>
</g>
</svg>
