<svg width="25" height="24" viewBox="0 0 25 24" fill="#009D48" xmlns="http://www.w3.org/2000/svg">
<path d="M9.20215 13.5L15.2021 16.5M15.2021 7.5L9.20215 10.5M18.2021 21C16.5453 21 15.2021 19.6569 15.2021 18C15.2021 16.3431 16.5453 15 18.2021 15C19.859 15 21.2021 16.3431 21.2021 18C21.2021 19.6569 19.859 21 18.2021 21ZM6.20215 15C4.54529 15 3.20215 13.6569 3.20215 12C3.20215 10.3431 4.54529 9 6.20215 9C7.859 9 9.20215 10.3431 9.20215 12C9.20215 13.6569 7.859 15 6.20215 15ZM18.2021 9C16.5453 9 15.2021 7.65685 15.2021 6C15.2021 4.34315 16.5453 3 18.2021 3C19.859 3 21.2021 4.34315 21.2021 6C21.2021 7.65685 19.859 9 18.2021 9Z" stroke="#009D48" stroke-width="2" stroke-linecap="round" stroke-linejoin="round"/>
</svg>
