<svg width="25" height="25" viewBox="0 0 25 25" fill="none" xmlns="http://www.w3.org/2000/svg">
<g clip-path="url(#clip0_68_326)">
<path fill-rule="evenodd" clip-rule="evenodd" d="M22.1445 3.70898C23.2491 3.70898 24.1445 4.60441 24.1445 5.70898V16.883C24.1445 17.9876 23.2491 18.883 22.1445 18.883H21.5761C21.1445 20.3569 19.7825 21.4333 18.1691 21.4333C16.5557 21.4333 15.1937 20.3569 14.7621 18.883H9.28463C8.85303 20.3569 7.49102 21.4333 5.8776 21.4333C4.26456 21.4333 2.90281 20.3574 2.47087 18.884L0.23291 18.884V12.7947L4.15601 7.72852H8.19775V5.70898C8.19775 4.60442 9.09318 3.70898 10.1978 3.70898H22.1445ZM2.47063 16.884H2.23291V13.4785L5.13681 9.72852H8.19775V15.1971C7.57556 14.6593 6.76457 14.334 5.8776 14.334C4.26427 14.334 2.90232 15.4103 2.47063 16.884ZM18.1691 14.334C19.782 14.334 21.1437 15.4098 21.5758 16.883H22.1445V5.70898L10.1978 5.70898V16.883H14.7624C15.1945 15.4098 16.5562 14.334 18.1691 14.334ZM18.1691 16.334C19.0249 16.334 19.7188 17.0278 19.7188 17.8836C19.7188 18.7395 19.0249 19.4333 18.1691 19.4333C17.3133 19.4333 16.6194 18.7395 16.6194 17.8836C16.6194 17.0278 17.3133 16.334 18.1691 16.334ZM7.42725 17.8836C7.42725 17.0278 6.73344 16.334 5.8776 16.334C5.02175 16.334 4.32794 17.0278 4.32794 17.8836C4.32794 18.7395 5.02175 19.4333 5.8776 19.4333C6.73344 19.4333 7.42725 18.7395 7.42725 17.8836Z" fill="#009D48"/>
</g>
<defs>
<clipPath id="clip0_68_326">
<rect width="24" height="24" fill="white" transform="matrix(-1 0 0 1 24.2021 0.445312)"/>
</clipPath>
</defs>
</svg>
