<?xml version="1.0" standalone="no"?>
<!DOCTYPE svg PUBLIC "-//W3C//DTD SVG 20010904//EN"
 "http://www.w3.org/TR/2001/REC-SVG-20010904/DTD/svg10.dtd">
<svg version="1.0" xmlns="http://www.w3.org/2000/svg"
 width="575.000000pt" height="575.000000pt" viewBox="0 0 575.000000 575.000000"
 preserveAspectRatio="xMidYMid meet">
<metadata>
Created by potrace 1.11, written by Peter Selinger 2001-2013
</metadata>
<g transform="translate(0.000000,575.000000) scale(0.100000,-0.100000)"
fill="#000000" stroke="none">
<path d="M2602 5733 c-35 -14 -86 -178 -119 -378 -26 -159 -25 -559 1 -700 88
-478 343 -751 737 -790 l66 -6 -5 -57 -4 -57 -127 -130 c-156 -160 -222 -257
-266 -393 l-17 -52 -50 0 c-39 0 -59 7 -94 31 -118 81 -222 113 -364 113 -116
0 -180 -14 -290 -66 -70 -33 -100 -56 -168 -125 -70 -70 -94 -88 -148 -108
-294 -111 -463 -293 -499 -540 -5 -40 -16 -59 -56 -103 -115 -125 -220 -320
-263 -486 -136 -523 49 -1048 509 -1444 127 -109 232 -177 387 -252 219 -106
388 -152 630 -172 486 -40 966 139 1319 491 214 215 350 452 405 711 24 114
24 283 -1 370 -24 84 -23 110 9 197 58 159 43 343 -40 513 -41 83 -60 108
-149 197 -84 82 -104 108 -109 140 -11 58 -62 153 -112 211 -74 85 -213 173
-356 227 -27 10 -48 20 -48 22 0 26 64 110 154 203 62 63 122 129 134 147 13
18 38 37 60 44 23 7 69 43 122 94 47 45 100 87 117 94 18 8 49 36 70 63 24 31
53 57 78 68 26 11 70 49 119 104 69 76 80 93 87 137 6 38 18 62 52 102 24 28
49 62 56 74 19 37 14 165 -10 228 -18 50 -19 58 -6 73 147 170 247 299 247
319 0 17 18 41 57 76 31 29 64 70 74 92 25 55 25 141 -1 183 -35 58 -122 78
-197 47 -50 -21 -69 -39 -115 -113 -25 -39 -51 -67 -70 -75 -17 -7 -81 -74
-157 -165 l-129 -154 -115 -1 c-114 -2 -116 -2 -147 -32 -36 -34 -31 -38 -90
67 -41 73 -173 214 -279 300 -42 33 -197 147 -346 253 -363 258 -450 329 -479
387 -11 23 -39 32 -64 21z m62 -122 c12 -11 117 -83 233 -160 332 -221 513
-378 687 -597 65 -82 166 -244 166 -266 0 -3 -17 -10 -37 -16 -30 -9 -54 -31
-108 -98 -83 -103 -94 -121 -95 -154 0 -14 -11 -38 -24 -54 l-23 -30 -7 70
c-17 161 -61 292 -141 415 -45 70 -80 107 -281 299 -55 52 -123 127 -152 165
-63 84 -136 222 -152 288 -18 70 -34 48 -25 -37 12 -126 74 -278 164 -401 20
-27 95 -111 166 -186 72 -74 152 -168 178 -207 100 -149 154 -306 164 -475 6
-97 6 -98 -30 -170 -48 -96 -64 -105 -154 -83 -103 26 -222 89 -298 158 -156
143 -249 349 -297 661 -37 243 -26 679 23 860 11 42 15 44 43 18z m2049 -413
c34 -18 46 -40 47 -85 0 -61 -14 -88 -77 -149 l-57 -54 -43 49 c-23 26 -56 54
-73 61 -16 7 -30 14 -30 16 0 2 20 35 44 72 58 91 126 124 189 90z m-201 -211
c78 -47 110 -128 70 -177 l-18 -22 -19 41 c-24 54 -75 98 -130 113 l-45 12 27
28 c33 34 65 36 115 5z m-71 -83 c33 -17 77 -68 85 -100 10 -40 -3 -65 -81
-156 l-75 -87 -45 48 c-25 26 -70 61 -100 78 l-55 29 71 85 c116 138 123 142
200 103z m-291 -243 c80 -30 162 -107 202 -189 28 -57 33 -77 33 -142 l0 -75
-50 -62 c-27 -34 -53 -62 -56 -62 -3 -1 -9 21 -12 48 -13 107 -101 234 -208
298 -61 36 -152 63 -216 63 -24 0 -43 3 -43 6 0 16 113 133 133 138 47 10 164
-2 217 -23z m-269 -317 c167 -79 291 -266 254 -384 -8 -25 -50 -80 -111 -148
l-31 -34 -6 66 c-16 172 -156 314 -330 336 -81 10 -156 -3 -179 -31 -10 -12
-18 -16 -18 -10 0 17 179 221 203 232 44 18 148 5 218 -27z m-391 -641 c65
-34 105 -81 122 -146 l13 -48 -81 -77 c-45 -42 -113 -106 -151 -142 -85 -80
-127 -158 -148 -280 -27 -161 -70 -241 -168 -315 -71 -54 -118 -68 -217 -63
-101 4 -180 43 -295 146 -132 117 -129 115 -193 120 -94 7 -173 -44 -187 -120
-17 -91 58 -199 203 -293 174 -112 306 -154 513 -162 245 -10 423 45 488 151
41 65 25 135 -47 209 -43 43 -47 52 -47 95 0 28 12 76 29 120 32 80 31 80 111
40 196 -98 309 -233 322 -385 13 -158 -70 -304 -240 -424 -141 -99 -306 -147
-537 -155 -232 -9 -363 17 -600 121 -374 163 -539 366 -540 660 0 137 46 241
149 337 105 99 231 148 381 148 159 0 269 -45 400 -167 109 -100 123 -98 144
23 34 195 95 297 294 492 140 136 147 142 187 142 25 0 62 -11 95 -27z m-1676
-800 c-8 -27 -14 -90 -14 -155 l0 -108 -41 -37 c-65 -59 -84 -104 -83 -198 4
-303 340 -573 889 -715 269 -69 574 -64 801 14 164 55 291 143 337 231 13 25
23 70 27 120 6 72 12 89 55 164 27 47 56 111 65 144 l16 59 46 -53 c107 -126
148 -227 148 -364 0 -151 -52 -259 -182 -382 -224 -210 -693 -353 -1073 -328
-147 10 -348 46 -502 90 -10 3 0 -3 22 -13 96 -45 337 -103 507 -121 238 -26
506 1 737 75 108 35 305 134 381 193 l65 49 9 -26 c4 -15 8 -74 8 -132 1 -133
-31 -259 -100 -405 -206 -429 -629 -742 -1127 -831 -136 -24 -375 -24 -505 0
-425 81 -803 322 -1061 676 -124 170 -206 388 -230 607 -33 307 84 662 286
867 52 52 55 59 55 105 0 112 81 279 172 353 65 53 146 102 223 136 39 17 73
31 77 31 3 1 0 -20 -8 -46z"/>
</g>
</svg>
