<svg id="Livello_1" data-name="Livello 1" xmlns="http://www.w3.org/2000/svg" preserveAspectRatio="none" width="7.017" height="11.914" viewBox="0 0 7.017 11.914">
  <defs>
    <style>
      .cls-1 {
        fill: #fff;
      }
    </style>
  </defs>
  <title>50f6dfb9-6e4a-4588-9f9a-4c16ce92af5b</title>
  <path class="cls-1" d="M0.938,11.914A1.9,1.9,0,0,1,.1,11.188,0.6,0.6,0,0,1,.214,10.4Q2.387,8.22,4.563,6.048a0.808,0.808,0,0,1,.116-0.081C4.625,5.911,4.6,5.881,4.569,5.852,4.091,5.374,3.612,4.9,3.136,4.418q-0.994-1-1.983-2.006C0.855,2.111.561,1.8,0.264,1.5A0.6,0.6,0,0,1,.2.7,4.858,4.858,0,0,1,.8.107a0.587,0.587,0,0,1,.738.054Q2.131,0.748,2.717,1.337c0.248,0.25.488,0.507,0.736,0.757Q4.866,3.521,6.281,4.946c0.2,0.2.389,0.4,0.582,0.6a0.618,0.618,0,0,1-.015.831Q5.022,8.2,3.2,10.028,2.43,10.8,1.669,11.584a1.186,1.186,0,0,1-.48.33H0.938Z"/>
</svg>
