<svg id="Livello_1" data-name="Livello 1" xmlns="http://www.w3.org/2000/svg" preserveAspectRatio="none" width="15.188" height="28.092" viewBox="0 0 15.188 28.092">
  <defs>
    <style>
      .cls-1 {
        fill: #fff;
      }
    </style>
  </defs>
  <title>ddeb30c2-6736-4100-8dc1-f403d78c19c7</title>
  <path class="cls-1" d="M14.617,0.005L10.974,0C6.881,0,4.236,2.714,4.236,6.914V10.1H0.572A0.572,0.572,0,0,0,0,10.674v4.619a0.573,0.573,0,0,0,.572.572H4.236V27.52a0.573,0.573,0,0,0,.574.572H9.587a0.573,0.573,0,0,0,.574-0.572V15.865h4.283a0.572,0.572,0,0,0,.572-0.572l0-4.619a0.578,0.578,0,0,0-.168-0.405,0.572,0.572,0,0,0-.405-0.167H10.16V7.4c0-1.3.31-1.958,2-1.958h2.455a0.572,0.572,0,0,0,.572-0.572V0.579A0.573,0.573,0,0,0,14.617.005h0Zm0,0"/>
</svg>
