<svg id="Livello_1" data-name="Livello 1" xmlns="http://www.w3.org/2000/svg" preserveAspectRatio="none" width="14.929" height="14.453" viewBox="0 0 14.929 14.453">
  <defs>
    <style>
      .cls-1 {
        fill: #fff;
      }
    </style>
  </defs>
  <title>86a53f19-c8fa-48d5-8e97-d9fb0eb77437</title>
  <path class="cls-1" d="M14.742,7.052a0.712,0.712,0,0,0-.059-1.019L8.012,0.2A0.831,0.831,0,0,0,6.927.208L0.232,6.344A0.708,0.708,0,0,0,.2,7.362L0.368,7.536a0.732,0.732,0,0,0,1,.077l0.5-.448v6.56a0.728,0.728,0,0,0,.728.728h2.61a0.728,0.728,0,0,0,.728-0.728V9.136H9.268v4.589a0.688,0.688,0,0,0,.684.728h2.766a0.728,0.728,0,0,0,.729-0.728V7.258l0.308,0.271a0.656,0.656,0,0,0,.8-0.268Z"/>
</svg>
