<svg id="Livello_1" data-name="Livello 1" xmlns="http://www.w3.org/2000/svg" preserveAspectRatio="none" width="18.361" height="18.425" viewBox="0 0 18.361 18.425">
  <defs>
    <style>
      .cls-1 {
        fill: #fff;
      }

      .cls-2 {
        fill: none;
      }
    </style>
  </defs>
  <title>3768dcd2-be4a-4a58-bf10-91ec5e122cbf</title>
  <g>
    <path class="cls-1" d="M7.673,2.882a0.959,0.959,0,0,0,0,1.918,3.019,3.019,0,0,1,2.732,1.708,0.958,0.958,0,1,0,1.722-.84A4.922,4.922,0,0,0,7.673,2.882h0Zm0,0"/>
    <path class="cls-1" d="M17.987,16.052l-3.195-3.195a8.2,8.2,0,1,0-1.66,1.729l3.161,3.161a1.2,1.2,0,0,0,.848.35,1.2,1.2,0,0,0,.846-2.045h0ZM1.918,8.15A6.225,6.225,0,1,1,8.15,14.384,6.24,6.24,0,0,1,1.918,8.15h0Zm0,0"/>
    <rect class="cls-2" width="18.361" height="18.425"/>
  </g>
</svg>
