<?xml version="1.0" encoding="utf-8"?>
<!-- Generator: Adobe Illustrator 20.0.0, SVG Export Plug-In . SVG Version: 6.00 Build 0)  -->
<svg version="1.1" id="Livello_1" xmlns="http://www.w3.org/2000/svg" xmlns:xlink="http://www.w3.org/1999/xlink" x="0px" y="0px"
	 viewBox="0 0 36 36" style="enable-background:new 0 0 36 36;" xml:space="preserve">
<style type="text/css">
	.st0{fill:#215BA6;}
	.st1{fill:#FFFFFF;}
</style>
<rect class="st0" width="36" height="36"/>
<g>
	<path class="st1" d="M4.1,9.1C4.6,9.5,5,9.9,5.5,10.3c0.6,0.5,1.2,1,1.7,1.5c0.4,0.3,0.7,0.7,1.1,1c0.6,0.5,1.2,1,1.7,1.5
		c0.4,0.3,0.7,0.7,1.1,1c0.5,0.4,1,0.8,1.5,1.3c0.2,0.2,0.4,0.4,0.6,0.6c-0.2,0.2-0.4,0.5-0.6,0.7c-0.6,0.7-1.2,1.4-1.9,2.1
		c-0.4,0.5-0.9,1-1.3,1.5c-0.6,0.7-1.2,1.4-1.8,2c-0.2,0.3-0.5,0.5-0.7,0.8c-0.5,0.6-1.1,1.2-1.6,1.8c-0.4,0.5-0.8,0.9-1.2,1.3
		C4.1,21.3,4.1,15.2,4.1,9.1z"/>
	<path class="st1" d="M5.3,28.6c0.3-0.3,0.5-0.6,0.8-0.9c0.5-0.6,1-1.2,1.6-1.8c0.3-0.3,0.5-0.6,0.8-0.9c0.5-0.6,1.1-1.2,1.6-1.8
		c0.2-0.3,0.5-0.5,0.7-0.8c0.5-0.6,1.1-1.2,1.6-1.8c0.3-0.4,0.6-0.7,1-1.1c0.4-0.4,0.8-0.9,1.2-1.3c0.1-0.1,0.2-0.1,0.3,0
		c0.5,0.4,1,0.8,1.5,1.3c0.3,0.3,0.7,0.6,1,0.9c0.2,0.2,0.4,0.4,0.7,0.6c0.3-0.2,0.6-0.5,0.8-0.7c0.5-0.4,1-0.9,1.6-1.4
		c0.3-0.2,0.5-0.5,0.8-0.7c0.1-0.1,0.2-0.1,0.3,0c0.4,0.5,0.8,0.9,1.2,1.4c0.3,0.3,0.5,0.6,0.8,0.8c0.5,0.6,1,1.2,1.6,1.8
		c0.3,0.3,0.5,0.6,0.8,0.9c0.5,0.6,1.1,1.2,1.6,1.8c0.3,0.3,0.5,0.6,0.8,0.9c0.5,0.6,1.1,1.2,1.6,1.8c0.3,0.3,0.6,0.7,0.9,1
		C22.1,28.6,13.7,28.6,5.3,28.6z"/>
	<path class="st1" d="M5.4,8c8.3,0,16.6,0,25,0c-0.1,0.1-0.1,0.1-0.2,0.1c-0.4,0.3-0.7,0.7-1.1,1c-0.5,0.4-1,0.8-1.5,1.3
		c-0.4,0.3-0.7,0.7-1.1,1c-0.5,0.4-1,0.9-1.5,1.3c-0.4,0.3-0.7,0.7-1.1,1c-0.5,0.4-1,0.8-1.5,1.3c-0.4,0.3-0.7,0.7-1.1,1
		c-0.5,0.4-1,0.8-1.5,1.3c-0.3,0.3-0.7,0.6-1,0.9c-0.3,0.3-0.6,0.5-0.9,0.8c0,0-0.1,0-0.2,0c-0.3-0.2-0.6-0.5-0.9-0.8
		c-0.5-0.4-1-0.9-1.5-1.3c-0.4-0.3-0.7-0.7-1.1-1c-0.5-0.4-1-0.8-1.5-1.3c-0.4-0.3-0.7-0.7-1.1-1c-0.5-0.4-1-0.8-1.5-1.3
		c-0.3-0.3-0.7-0.6-1-0.9c-0.5-0.4-1-0.9-1.5-1.3C7.4,9.7,7,9.4,6.7,9.1C6.3,8.8,5.9,8.4,5.4,8C5.5,8,5.5,8,5.4,8z"/>
	<path class="st1" d="M31.7,9.1c0,6.1,0,12.2,0,18.3c-0.2-0.2-0.4-0.4-0.6-0.6c-0.3-0.3-0.5-0.6-0.8-0.9c-0.5-0.6-1-1.2-1.6-1.8
		c-0.3-0.3-0.5-0.6-0.8-0.9c-0.5-0.6-1.1-1.2-1.6-1.8c-0.3-0.3-0.5-0.6-0.8-0.8c-0.5-0.6-1.1-1.2-1.6-1.8c-0.2-0.3-0.5-0.5-0.7-0.8
		c-0.3-0.3-0.5-0.6-0.8-0.9c0.2-0.2,0.4-0.4,0.6-0.5c0.3-0.2,0.5-0.5,0.8-0.7c0.5-0.4,1-0.9,1.5-1.3c0.4-0.3,0.7-0.7,1.1-1
		c0.5-0.4,1-0.8,1.4-1.3c0.4-0.3,0.7-0.7,1.1-1c0.5-0.4,1-0.8,1.5-1.3C30.9,9.8,31.3,9.4,31.7,9.1z"/>
</g>
</svg>
