<?xml version="1.0" encoding="utf-8"?>
<!-- Generator: Adobe Illustrator 20.0.0, SVG Export Plug-In . SVG Version: 6.00 Build 0)  -->
<svg version="1.1" id="Livello_1" xmlns="http://www.w3.org/2000/svg" xmlns:xlink="http://www.w3.org/1999/xlink" x="0px" y="0px"
	 viewBox="0 0 36 36" style="enable-background:new 0 0 36 36;" xml:space="preserve">
<style type="text/css">
	.st0{fill:#6AAADD;}
	.st1{fill:#FFFFFF;}
</style>
<g>
	<rect class="st0" width="36" height="36"/>
	<path class="st1" d="M4.8,26.7c2.4,1.5,5.2,2.4,8.3,2.4c8.6,0,15.5-6.9,15.5-15.5c0-0.2,0-0.4,0-0.6c0.3-0.2,2.2-1.8,2.7-2.8
		c0,0-1.6,0.6-3.1,0.8c0,0,0,0,0,0s0,0,0,0c0.1-0.1,2.1-1.4,2.4-3c0,0-1.1,0.6-2.6,1.1c-0.3,0.1-0.5,0.2-0.8,0.2
		c-1-1.1-2.4-1.7-4-1.7c-3,0-5.4,2.4-5.4,5.4c0,0.4,0,0.8,0.1,1.2c-0.4,0-6.8-0.4-11.2-5.6c0,0-2.6,3.5,1.5,7.2c0,0-1.3-0.1-2.3-0.7
		c0,0-0.4,4.3,4.3,5.4c0,0-0.9,0.3-2.4,0.1c0,0,0.8,3.5,5,3.8C12.8,24.4,9.5,27.4,4.8,26.7L4.8,26.7z M4.8,26.7"/>
</g>
</svg>
