<?xml version="1.0" encoding="utf-8"?>
<!-- Generator: Adobe Illustrator 21.0.2, SVG Export Plug-In . SVG Version: 6.00 Build 0)  -->
<svg version="1.1" id="Livello_1" xmlns="http://www.w3.org/2000/svg" xmlns:xlink="http://www.w3.org/1999/xlink" x="0px" y="0px"
	 viewBox="0 0 362.5 43.6" style="enable-background:new 0 0 362.5 43.6;" xml:space="preserve">
<style type="text/css">
	.st0{fill:#FFFFFF;}
	.st1{fill:#EE753E;}
</style>
<title>e08cec7a-1c3c-4159-ba8d-bb1c854e8e09</title>
<g>
	<path class="st0" d="M201.8,19.5V21c0,0.2,0.1,0.4,0.2,0.6c0.2,0.2,0.4,0.2,0.6,0.2h9.5c0.2,0,0.4,0.1,0.6,0.2
		c0.2,0.2,0.2,0.4,0.2,0.6v4.9c0,0.2-0.1,0.4-0.2,0.6c-0.2,0.2-0.4,0.2-0.6,0.2h-9.5c-0.2,0-0.4,0.1-0.6,0.2
		c-0.2,0.2-0.2,0.4-0.2,0.6v1.3c0,0.2,0.1,0.4,0.2,0.6c0.2,0.2,0.4,0.2,0.6,0.2h11c0.2,0,0.4,0.1,0.6,0.2c0.2,0.2,0.2,0.4,0.2,0.6
		v4.9c0,0.2-0.1,0.4-0.2,0.6c-0.2,0.2-0.4,0.2-0.6,0.2h-17.9c-0.2,0-0.4-0.1-0.6-0.2c-0.2-0.2-0.2-0.4-0.2-0.6V13
		c0-0.2,0.1-0.4,0.2-0.6c0.2-0.2,0.4-0.2,0.6-0.2h17.9c0.2,0,0.4,0.1,0.6,0.2c0.2,0.2,0.2,0.4,0.2,0.6v4.8c0,0.2-0.1,0.4-0.2,0.6
		c-0.2,0.2-0.4,0.2-0.6,0.2h-11c-0.2,0-0.4,0.1-0.6,0.2C201.9,19.1,201.8,19.3,201.8,19.5"/>
	<path class="st0" d="M276.6,13c0.1-0.2,0.3-0.4,0.5-0.5c0.2-0.2,0.5-0.2,0.7-0.2h4.9c0.2,0,0.5,0.1,0.7,0.2
		c0.2,0.2,0.4,0.3,0.5,0.5l10.3,24c0.1,0.2,0.1,0.4-0.1,0.7c-0.1,0.2-0.4,0.4-0.8,0.4h-6c-0.3,0-0.5-0.1-0.7-0.2
		c-0.2-0.2-0.4-0.3-0.5-0.5l-1-2.1c-0.1-0.2-0.3-0.4-0.5-0.5c-0.2-0.2-0.5-0.2-0.7-0.2h-7.4c-0.3,0-0.5,0.1-0.7,0.2
		c-0.2,0.2-0.4,0.3-0.5,0.5l-1,2.1c-0.1,0.2-0.3,0.4-0.5,0.5c-0.2,0.2-0.5,0.2-0.7,0.2h-6.1c-0.1,0-0.2,0-0.4-0.1
		c-0.1,0-0.2-0.1-0.3-0.2c-0.1-0.1-0.1-0.2-0.2-0.4c0-0.1,0-0.3,0.1-0.5L276.6,13z M278.7,28.3h3.1c0.2,0,0.4-0.1,0.5-0.2
		c0.1-0.2,0.1-0.3,0-0.5c-0.2-0.6-0.5-1.3-0.8-2.1c-0.3-0.8-0.6-1.5-0.9-2.2c-0.1-0.2-0.2-0.3-0.3-0.3c-0.1,0-0.2,0.1-0.3,0.3
		l-1.8,4.3c-0.1,0.2-0.1,0.4,0,0.5C278.3,28.2,278.5,28.3,278.7,28.3"/>
	<path class="st1" d="M303.8,33.8c0,0.5-0.1,1-0.3,1.4c-0.2,0.4-0.4,0.8-0.8,1.2c-0.3,0.3-0.7,0.6-1.2,0.8c-0.4,0.2-0.9,0.3-1.4,0.3
		c-0.5,0-1-0.1-1.4-0.3c-0.4-0.2-0.8-0.4-1.1-0.8c-0.3-0.3-0.6-0.7-0.8-1.2c-0.2-0.4-0.3-0.9-0.3-1.4c0-0.5,0.1-1,0.3-1.4
		c0.2-0.4,0.4-0.8,0.8-1.1c0.3-0.3,0.7-0.6,1.1-0.8c0.4-0.2,0.9-0.3,1.4-0.3c0.5,0,1,0.1,1.4,0.3c0.4,0.2,0.8,0.4,1.2,0.8
		c0.3,0.3,0.6,0.7,0.8,1.1C303.7,32.9,303.8,33.4,303.8,33.8"/>
	<path class="st0" d="M318,37.2V25.3c0-3-0.9-3.9-3.4-3.9c-2.7,0-4,1.5-4,4.5v11.3h-5.2V17.5h5v2.9c1.2-2.2,3.2-3.4,6.4-3.4
		c3.8,0,6.5,2.3,6.5,6.6v13.7H318z"/>
	<path class="st0" d="M330.1,28.7c0.2,3,1.8,4.9,4.4,4.9c1.7,0,3.2-0.8,3.5-2.2h5.4c-1.2,4-4.5,6.3-8.7,6.3c-6.6,0-9.9-3.6-9.9-10.7
		c0-6.1,3.5-10,9.5-10c6.1,0,9.3,3.9,9.3,11.7H330.1z M338.3,25.4c-0.1-2.9-2-4.3-4-4.3c-2.1,0-3.8,1.6-4,4.3H338.3z"/>
	<path class="st0" d="M356.5,24.2h4.9v5.6c0,4.2-2.4,7.9-8,7.9c-5.8,0-8.1-3.7-8.1-7.9V12.2h5.1v5.3h10.9v3.7h-10.9v8.1
		c0,2.5,0.9,3.9,3,3.9c2.1,0,3-1.4,3-3.8V24.2z"/>
	<path class="st1" d="M0.5,12.7c-0.1-0.3-0.1-0.5,0-0.7c0.1-0.2,0.3-0.3,0.6-0.3h5.8c0.2,0,0.5,0.1,0.7,0.2c0.2,0.2,0.4,0.3,0.4,0.6
		l4.1,11.9c0.1,0.2,0.2,0.4,0.4,0.4c0.2,0,0.3-0.1,0.4-0.4l3.9-11.9c0.1-0.2,0.2-0.4,0.4-0.6c0.2-0.2,0.5-0.2,0.7-0.2h4.8
		c0.3,0,0.5,0.1,0.7,0.2c0.2,0.2,0.4,0.4,0.4,0.6l3.9,12c0.1,0.2,0.2,0.4,0.4,0.4c0.2,0,0.3-0.1,0.4-0.4l4.1-12
		c0.1-0.2,0.3-0.4,0.5-0.6c0.2-0.2,0.5-0.2,0.7-0.2h5.8c0.3,0,0.4,0.1,0.5,0.3c0.1,0.2,0.1,0.4,0,0.6l-8.7,24.5
		c-0.1,0.2-0.3,0.4-0.5,0.6c-0.2,0.2-0.5,0.2-0.7,0.2h-4.6c-0.3,0-0.5-0.1-0.7-0.2c-0.2-0.2-0.4-0.4-0.4-0.6l-3.9-11.9
		c-0.1-0.2-0.2-0.4-0.4-0.4c-0.2,0-0.3,0.1-0.4,0.4L16,37.1c-0.1,0.2-0.2,0.4-0.4,0.6c-0.2,0.2-0.5,0.2-0.7,0.2h-4.6
		c-0.3,0-0.5-0.1-0.7-0.3c-0.2-0.2-0.3-0.4-0.4-0.6L0.5,12.7z"/>
	<path class="st1" d="M46.6,12.5c0.1-0.2,0.3-0.4,0.5-0.6c0.2-0.2,0.5-0.2,0.7-0.2h5c0.2,0,0.5,0.1,0.7,0.2c0.2,0.2,0.4,0.3,0.5,0.6
		l10.5,24.4c0.1,0.2,0.1,0.4-0.1,0.7C64.3,37.8,64,38,63.6,38h-6.1c-0.3,0-0.5-0.1-0.7-0.2c-0.2-0.2-0.4-0.3-0.5-0.6l-1-2.2
		c-0.1-0.2-0.3-0.4-0.5-0.6c-0.2-0.2-0.5-0.2-0.7-0.2h-7.6c-0.3,0-0.5,0.1-0.7,0.2c-0.2,0.2-0.4,0.3-0.5,0.6l-1,2.2
		c-0.1,0.2-0.3,0.4-0.5,0.6c-0.2,0.2-0.5,0.2-0.7,0.2h-6.2c-0.1,0-0.2,0-0.4-0.1c-0.1,0-0.2-0.1-0.3-0.2c-0.1-0.1-0.1-0.2-0.2-0.4
		c0-0.1,0-0.3,0.1-0.5L46.6,12.5z M48.7,28.1h3.2c0.2,0,0.4-0.1,0.5-0.2c0.1-0.2,0.1-0.3,0-0.6c-0.2-0.6-0.5-1.3-0.9-2.1
		c-0.3-0.8-0.6-1.5-0.9-2.2c-0.1-0.2-0.2-0.3-0.3-0.3c-0.1,0-0.2,0.1-0.3,0.3l-1.8,4.3c-0.1,0.2-0.1,0.4,0,0.6
		C48.2,28.1,48.4,28.1,48.7,28.1"/>
	<path class="st1" d="M80.6,18.3h-5c-0.2,0-0.4,0.1-0.6,0.3c-0.2,0.2-0.3,0.4-0.3,0.6v17.9c0,0.2-0.1,0.4-0.2,0.6
		c-0.2,0.2-0.4,0.3-0.6,0.3h-5.4c-0.2,0-0.4-0.1-0.6-0.3c-0.2-0.2-0.3-0.4-0.3-0.6V19.2c0-0.2-0.1-0.4-0.2-0.6
		c-0.2-0.2-0.4-0.3-0.6-0.3h-5.1c-0.2,0-0.4-0.1-0.6-0.3c-0.2-0.2-0.3-0.4-0.3-0.6v-4.9c0-0.2,0.1-0.4,0.3-0.6
		c0.2-0.2,0.4-0.3,0.6-0.3h18.9c0.3,0,0.5,0.1,0.6,0.3c0.2,0.2,0.2,0.4,0.2,0.6v4.9c0,0.2-0.1,0.4-0.2,0.6
		C81,18.2,80.8,18.3,80.6,18.3"/>
	<path class="st1" d="M88.3,12.5c0.1-0.2,0.3-0.4,0.5-0.6c0.2-0.2,0.5-0.2,0.7-0.2h5c0.2,0,0.5,0.1,0.7,0.2c0.2,0.2,0.4,0.3,0.5,0.6
		l10.5,24.4c0.1,0.2,0.1,0.4-0.1,0.7c-0.1,0.2-0.4,0.4-0.8,0.4h-6.1c-0.3,0-0.5-0.1-0.7-0.2c-0.2-0.2-0.4-0.3-0.5-0.6L97,35
		c-0.1-0.2-0.3-0.4-0.5-0.6c-0.2-0.2-0.5-0.2-0.7-0.2h-7.6c-0.3,0-0.5,0.1-0.7,0.2c-0.2,0.2-0.4,0.3-0.5,0.6l-1,2.2
		c-0.1,0.2-0.3,0.4-0.5,0.6C85.2,37.9,85,38,84.8,38h-6.2c-0.1,0-0.2,0-0.4-0.1c-0.1,0-0.2-0.1-0.3-0.2c-0.1-0.1-0.1-0.2-0.2-0.4
		c0-0.1,0-0.3,0.1-0.5L88.3,12.5z M90.4,28.1h3.2c0.2,0,0.4-0.1,0.5-0.2c0.1-0.2,0.1-0.3,0-0.6c-0.2-0.6-0.5-1.3-0.9-2.1
		c-0.3-0.8-0.6-1.5-0.9-2.2c-0.1-0.2-0.2-0.3-0.3-0.3s-0.2,0.1-0.3,0.3l-1.8,4.3c-0.1,0.2-0.1,0.4,0,0.6
		C89.9,28.1,90.1,28.1,90.4,28.1"/>
	<path class="st1" d="M137.1,12.6v24.5c0,0.2-0.1,0.4-0.3,0.6c-0.2,0.2-0.4,0.3-0.6,0.3h-5.4c-0.2,0-0.4-0.1-0.6-0.3
		c-0.2-0.2-0.2-0.4-0.2-0.6V25.5c0-0.2-0.1-0.4-0.3-0.4c-0.2,0-0.4,0.1-0.5,0.3l-6,9.7c-0.1,0.2-0.3,0.3-0.6,0.3
		c-0.3,0-0.5-0.1-0.6-0.3l-6-9.7c-0.1-0.2-0.3-0.3-0.5-0.3c-0.2,0-0.3,0.2-0.3,0.4v11.6c0,0.2-0.1,0.4-0.2,0.6
		c-0.2,0.2-0.4,0.3-0.6,0.3h-5.4c-0.2,0-0.4-0.1-0.6-0.3c-0.2-0.2-0.2-0.4-0.2-0.6V12.6c0-0.2,0.1-0.4,0.3-0.6
		c0.2-0.2,0.4-0.3,0.6-0.3h5c0.2,0,0.5,0.1,0.7,0.2c0.3,0.1,0.5,0.3,0.6,0.5l6.9,10.1c0.1,0.2,0.3,0.3,0.5,0.3s0.3-0.1,0.5-0.3
		l6.9-10.1c0.1-0.2,0.3-0.4,0.6-0.5c0.3-0.1,0.5-0.2,0.8-0.2h5c0.2,0,0.4,0.1,0.6,0.3C137,12.2,137.1,12.4,137.1,12.6"/>
	<path class="st1" d="M141.9,12.6c0-0.2,0.1-0.4,0.2-0.6c0.2-0.2,0.4-0.3,0.6-0.3h5.4c0.2,0,0.4,0.1,0.6,0.3
		c0.2,0.2,0.2,0.4,0.2,0.6v14.5c0,0.9,0.1,1.7,0.5,2.3c0.3,0.6,0.7,1.1,1.1,1.4c0.4,0.3,0.9,0.6,1.4,0.7c0.5,0.1,1,0.2,1.4,0.2
		c0.4,0,0.9-0.1,1.4-0.2c0.5-0.1,1-0.4,1.4-0.7c0.4-0.3,0.8-0.8,1.1-1.4c0.3-0.6,0.5-1.4,0.5-2.3V12.6c0-0.2,0.1-0.4,0.2-0.6
		c0.2-0.2,0.4-0.3,0.6-0.3h5.4c0.2,0,0.4,0.1,0.6,0.3c0.2,0.2,0.3,0.4,0.3,0.6v14.5c0,1.7-0.3,3.2-0.8,4.6c-0.5,1.4-1.3,2.6-2.3,3.6
		c-1,1-2.2,1.7-3.6,2.3c-1.4,0.5-3,0.8-4.7,0.8c-1.7,0-3.3-0.3-4.7-0.8c-1.4-0.5-2.6-1.3-3.6-2.3c-1-1-1.8-2.2-2.3-3.6
		c-0.5-1.4-0.8-2.9-0.8-4.6V12.6z"/>
	<path class="st0" d="M183.5,37.3l-6.8-7.6c-0.2-0.2-0.3-0.3-0.4-0.2c-0.1,0-0.2,0.2-0.2,0.4v7.2c0,0.2-0.1,0.4-0.2,0.6
		c-0.2,0.2-0.4,0.2-0.6,0.2H170c-0.3,0-0.5-0.1-0.6-0.2c-0.2-0.2-0.2-0.4-0.2-0.6V13c0-0.2,0.1-0.4,0.2-0.6c0.2-0.2,0.4-0.2,0.6-0.2
		h5.3c0.2,0,0.4,0.1,0.6,0.2c0.2,0.2,0.2,0.4,0.2,0.6v8.1c0,0.2,0,0.4,0.1,0.4c0.1,0,0.2,0,0.4-0.2l6.3-8.4c0.1-0.2,0.3-0.3,0.6-0.5
		c0.3-0.1,0.5-0.2,0.8-0.2h6.7c0.3,0,0.4,0.1,0.5,0.3c0.1,0.2,0,0.4-0.1,0.6l-9.3,11.6c-0.1,0.2-0.2,0.4-0.2,0.7
		c0,0.2,0.1,0.5,0.3,0.6c0.8,0.9,1.6,1.8,2.5,2.7c0.9,0.9,1.8,1.9,2.7,2.8c0.9,1,1.7,1.9,2.6,2.8c0.9,0.9,1.7,1.8,2.4,2.6
		c0.2,0.2,0.2,0.4,0.2,0.6c0,0.2-0.2,0.4-0.5,0.4h-7.3c-0.3,0-0.5-0.1-0.8-0.2C183.8,37.7,183.6,37.5,183.5,37.3"/>
	<path class="st0" d="M243.2,13v24.1c0,0.2-0.1,0.4-0.2,0.6c-0.2,0.2-0.4,0.2-0.6,0.2h-5.2c-0.2,0-0.5-0.1-0.7-0.2
		c-0.3-0.1-0.5-0.3-0.6-0.5l-9.2-12.9c-0.1-0.2-0.3-0.3-0.4-0.2c-0.2,0-0.2,0.2-0.2,0.4v12.6c0,0.2-0.1,0.4-0.2,0.6
		c-0.2,0.2-0.4,0.2-0.6,0.2h-5.3c-0.2,0-0.4-0.1-0.6-0.2c-0.2-0.2-0.2-0.4-0.2-0.6V13c0-0.2,0.1-0.4,0.2-0.6
		c0.2-0.2,0.4-0.2,0.6-0.2h5.3c0.2,0,0.5,0.1,0.7,0.2c0.3,0.1,0.5,0.3,0.6,0.5l9.2,12.9c0.1,0.2,0.3,0.3,0.4,0.2
		c0.2,0,0.2-0.2,0.2-0.4V13c0-0.2,0.1-0.4,0.2-0.6c0.2-0.2,0.4-0.2,0.6-0.2h5.2c0.2,0,0.4,0.1,0.6,0.2
		C243.1,12.6,243.2,12.8,243.2,13"/>
	<path class="st1" d="M245.5,20.1c4.7,0.4,7.9,2.1,7.9,6.3c0,3.7-2.3,10-2.9,11.6h14.5c-4-10.3-2.9-13.5-1.6-15.6
		c1.3-2.2,5.3-1.4,7.1-2.2c12.7-6.1,8.8-15.6,8.8-15.6c-0.6,3.1-0.9,4.1-3.4,5.3c-0.4,0.2-2.5,0.8-2.9,0.7
		c-14.4-2.2-15.1,4.6-15.1,4.6c-2.2-7.2-14.5-4-18-5.3c-3.5-1.4-3.6-5.3-3.6-5.3C233.7,11.1,240.8,19.7,245.5,20.1"/>
</g>
</svg>
