<svg width="14" height="10" viewBox="0 0 14 10" fill="none" xmlns="http://www.w3.org/2000/svg">
<path d="M1 4.5C0.723858 4.5 0.5 4.72386 0.5 5C0.5 5.27614 0.723858 5.5 1 5.5V4.5ZM13 5L13.3536 5.35355C13.5488 5.15829 13.5488 4.84171 13.3536 4.64645L13 5ZM8.64645 8.64645C8.45118 8.84171 8.45118 9.15829 8.64645 9.35355C8.84171 9.54882 9.15829 9.54882 9.35355 9.35355L8.64645 8.64645ZM9.35355 0.646447C9.15829 0.451184 8.84171 0.451184 8.64645 0.646447C8.45118 0.841709 8.45118 1.15829 8.64645 1.35355L9.35355 0.646447ZM1 5.5H13V4.5H1V5.5ZM12.6464 4.64645L8.64645 8.64645L9.35355 9.35355L13.3536 5.35355L12.6464 4.64645ZM13.3536 4.64645L9.35355 0.646447L8.64645 1.35355L12.6464 5.35355L13.3536 4.64645Z" fill="white" fill-opacity="0.3"/>
</svg>
