<svg width="15" height="9" viewBox="0 0 15 9" fill="none" xmlns="http://www.w3.org/2000/svg">
<path d="M15 0H0V9H15V0Z" fill="white"/>
<path d="M10.0424 3.2602L14.9978 0.413265V0H14.6406L9.01562 3.2602H10.0424Z" fill="#BD0034"/>
<path d="M9.77734 5.92358L15.0006 8.90828V8.31134L10.8488 5.92358H9.77734Z" fill="#BD0034"/>
<path d="M0 0.688736L4.41964 3.26016H5.49107L0 0.0917969V0.688736Z" fill="#BD0034"/>
<path d="M5.22321 5.92358L0 8.9542V9.00012H0.9375L6.29464 5.92358H5.22321Z" fill="#BD0034"/>
<path d="M13.9749 0H8.70703V3.03061L13.9749 0Z" fill="#1A237B"/>
<path d="M6.38337 0H1.16016L6.38337 3.03061V0Z" fill="#1A237B"/>
<path d="M14.9972 3.26017V1.19385L11.4258 3.26017H14.9972Z" fill="#1A237B"/>
<path d="M14.9972 7.94399V5.92358H11.4258L14.9972 7.94399Z" fill="#1A237B"/>
<path d="M1.47266 9.00001H6.38337V6.15308L1.47266 9.00001Z" fill="#1A237B"/>
<path d="M8.70703 9.00001H13.6624L8.70703 6.15308V9.00001Z" fill="#1A237B"/>
<path d="M0 5.92358V8.03583L3.66071 5.92358H0Z" fill="#1A237B"/>
<path d="M0 3.26021H3.66071L0 1.10205V3.26021Z" fill="#1A237B"/>
<path d="M6.875 0V3.76531H0V5.37245H6.875V9H8.25893V5.37245H15V3.76531H8.25893V0H6.875Z" fill="#BD0034"/>
</svg>
