<svg width="29" height="30" viewBox="0 0 29 30" fill="none" xmlns="http://www.w3.org/2000/svg">
<path d="M14.5052 17.206C16.0031 17.206 17.2174 15.9916 17.2174 14.4937C17.2174 12.9958 16.0031 11.7815 14.5052 11.7815C13.0073 11.7815 11.793 12.9958 11.793 14.4937C11.793 15.9916 13.0073 17.206 14.5052 17.206Z" fill="#4F4F4F"/>
<path d="M17.1579 7.59391H11.8543C10.7258 7.59263 9.64303 8.03932 8.84375 8.83588C8.04446 9.63244 7.59406 10.7137 7.59149 11.8421V17.1433C7.59276 17.7016 7.70406 18.2542 7.91903 18.7694C8.13401 19.2847 8.44844 19.7525 8.84434 20.1461C9.24024 20.5398 9.70984 20.8515 10.2263 21.0636C10.7428 21.2756 11.296 21.3837 11.8543 21.3818H17.1579C17.7156 21.3818 18.2679 21.2719 18.7832 21.0584C19.2985 20.8449 19.7667 20.5319 20.161 20.1374C20.5552 19.7429 20.8679 19.2746 21.0812 18.7591C21.2944 18.2437 21.404 17.6914 21.4037 17.1336V11.8421C21.4024 10.7162 20.9547 9.63681 20.1588 8.84046C19.3629 8.04411 18.2838 7.59584 17.1579 7.59391ZM14.5061 18.9969C13.6168 18.9969 12.7475 18.7332 12.0081 18.2391C11.2688 17.745 10.6926 17.0427 10.3524 16.2211C10.0122 15.3995 9.92327 14.4954 10.0969 13.6233C10.2706 12.7511 10.699 11.9501 11.328 11.3214C11.957 10.6928 12.7583 10.2648 13.6305 10.0916C14.5027 9.91842 15.4067 10.0078 16.2282 10.3484C17.0496 10.6891 17.7516 11.2657 18.2453 12.0053C18.739 12.7449 19.0022 13.6144 19.0018 14.5036C18.9979 15.6937 18.5226 16.8337 17.68 17.674C16.8374 18.5144 15.6961 18.9866 14.5061 18.9872V18.9969ZM18.9241 11.107C18.697 11.107 18.4751 11.0396 18.2863 10.9134C18.0975 10.7872 17.9505 10.6079 17.8637 10.398C17.7769 10.1882 17.7543 9.95732 17.7988 9.73465C17.8433 9.51197 17.9528 9.3075 18.1135 9.14711C18.2743 8.98671 18.479 8.87761 18.7017 8.8336C18.9245 8.7896 19.1553 8.81267 19.365 8.8999C19.5746 8.98713 19.7537 9.1346 19.8795 9.32363C20.0053 9.51267 20.0722 9.73478 20.0717 9.96185C20.0698 10.2645 19.9479 10.554 19.7327 10.7669C19.5176 10.9798 19.2268 11.0986 18.9241 11.0973V11.107ZM17.1579 7.60361H11.8543C10.7258 7.60232 9.64303 8.04903 8.84375 8.84559C8.04446 9.64215 7.59406 10.7234 7.59149 11.8518V17.153C7.59662 18.2789 8.04847 19.3566 8.84776 20.1496C9.64705 20.9425 10.7284 21.3857 11.8543 21.3818H17.1579C17.7156 21.3818 18.2679 21.2719 18.7832 21.0584C19.2985 20.8449 19.7667 20.5319 20.161 20.1374C20.5552 19.7429 20.8679 19.2746 21.0812 18.7591C21.2944 18.2437 21.404 17.6914 21.4037 17.1336V11.8421C21.4024 10.7162 20.9547 9.63681 20.1588 8.84046C19.3629 8.04411 18.2838 7.59584 17.1579 7.59391V7.60361ZM14.5061 19.0066C13.6168 19.0066 12.7475 18.7429 12.0081 18.2488C11.2688 17.7547 10.6926 17.0524 10.3524 16.2308C10.0122 15.4092 9.92327 14.5051 10.0969 13.633C10.2706 12.7608 10.699 11.9598 11.328 11.3311C11.957 10.7025 12.7583 10.2745 13.6305 10.1013C14.5027 9.92812 15.4067 10.0175 16.2282 10.3581C17.0496 10.6988 17.7516 11.2754 18.2453 12.015C18.739 12.7546 19.0022 13.6241 19.0018 14.5133C18.9953 15.7017 18.5189 16.8392 17.6766 17.6775C16.8343 18.5157 15.6944 18.9866 14.5061 18.9872V19.0066ZM18.9241 11.1167C18.697 11.1167 18.4751 11.0493 18.2863 10.9231C18.0975 10.7969 17.9505 10.6176 17.8637 10.4077C17.7769 10.1979 17.7543 9.96703 17.7988 9.74436C17.8433 9.52168 17.9528 9.31721 18.1135 9.15681C18.2743 8.99642 18.479 8.88731 18.7017 8.84331C18.9245 8.7993 19.1553 8.82238 19.365 8.9096C19.5746 8.99683 19.7537 9.1443 19.8795 9.33334C20.0053 9.52238 20.0722 9.74448 20.0717 9.97156C20.0672 10.2725 19.9442 10.5596 19.7293 10.7703C19.5145 10.9811 19.2251 11.0986 18.9241 11.0973V11.1167ZM17.1579 7.61332H11.8543C10.7258 7.61203 9.64303 8.05873 8.84375 8.85529C8.04446 9.65185 7.59406 10.7331 7.59149 11.8615V17.1627C7.59918 18.2869 8.05215 19.3622 8.85116 20.153C9.65017 20.9438 10.7301 21.3857 11.8543 21.3818H17.1579C17.7156 21.3818 18.2679 21.2719 18.7832 21.0584C19.2985 20.8449 19.7667 20.5319 20.161 20.1374C20.5552 19.7429 20.8679 19.2746 21.0812 18.7591C21.2944 18.2437 21.404 17.6914 21.4037 17.1336V11.8421C21.4024 10.7162 20.9547 9.63681 20.1588 8.84046C19.3629 8.04411 18.2838 7.59584 17.1579 7.59391V7.61332ZM14.5061 19.0163C13.6168 19.0163 12.7475 18.7526 12.0081 18.2585C11.2688 17.7644 10.6926 17.0621 10.3524 16.2405C10.0122 15.4189 9.92327 14.5148 10.0969 13.6427C10.2706 12.7705 10.699 11.9695 11.328 11.3408C11.957 10.7122 12.7583 10.2842 13.6305 10.111C14.5027 9.93783 15.4067 10.0272 16.2282 10.3678C17.0496 10.7085 17.7516 11.2851 18.2453 12.0247C18.739 12.7643 19.0022 13.6338 19.0018 14.5231C18.9928 15.7097 18.5153 16.8447 17.6732 17.6809C16.8311 18.5171 15.6928 18.9866 14.5061 18.9872V19.0163ZM18.9241 11.1264C18.697 11.1264 18.4751 11.059 18.2863 10.9328C18.0975 10.8066 17.9505 10.6273 17.8637 10.4174C17.7769 10.2076 17.7543 9.97674 17.7988 9.75406C17.8433 9.53139 17.9528 9.32691 18.1135 9.16652C18.2743 9.00612 18.479 8.89702 18.7017 8.85301C18.9245 8.80901 19.1553 8.83208 19.365 8.91931C19.5746 9.00654 19.7537 9.154 19.8795 9.34304C20.0053 9.53208 20.0722 9.75419 20.0717 9.98126C20.0647 10.2805 19.9406 10.5651 19.726 10.7738C19.5114 10.9825 19.2235 11.0986 18.9241 11.0973V11.1264ZM17.1579 7.62303H11.8543C10.7258 7.62174 9.64303 8.06844 8.84375 8.865C8.04446 9.66155 7.59406 10.7428 7.59149 11.8712V17.1724C7.60174 18.2949 8.05584 19.3677 8.85457 20.1564C9.6533 20.9452 10.7317 21.3857 11.8543 21.3818H17.1579C17.7156 21.3818 18.2679 21.2719 18.7832 21.0584C19.2985 20.8449 19.7667 20.5319 20.161 20.1374C20.5552 19.7429 20.8679 19.2746 21.0812 18.7591C21.2944 18.2437 21.404 17.6914 21.4037 17.1336V11.8421C21.4024 10.7162 20.9547 9.63681 20.1588 8.84046C19.3629 8.04411 18.2838 7.59584 17.1579 7.59391V7.62303ZM14.5061 19.026C13.6168 19.026 12.7475 18.7623 12.0081 18.2682C11.2688 17.7741 10.6926 17.0718 10.3524 16.2502C10.0122 15.4286 9.92327 14.5245 10.0969 13.6524C10.2706 12.7802 10.699 11.9792 11.328 11.3505C11.957 10.7219 12.7583 10.2939 13.6305 10.1207C14.5027 9.94753 15.4067 10.0369 16.2282 10.3775C17.0496 10.7182 17.7516 11.2948 18.2453 12.0344C18.739 12.7741 19.0022 13.6435 19.0018 14.5328C18.9903 15.7177 18.5116 16.8503 17.6698 17.6844C16.828 18.5184 15.6911 18.9866 14.5061 18.9872V19.026ZM18.9241 11.1361C18.697 11.1361 18.4751 11.0687 18.2863 10.9425C18.0975 10.8163 17.9505 10.637 17.8637 10.4271C17.7769 10.2173 17.7543 9.98644 17.7988 9.76376C17.8433 9.54109 17.9528 9.33661 18.1135 9.17622C18.2743 9.01582 18.479 8.90672 18.7017 8.86271C18.9245 8.81871 19.1553 8.84178 19.365 8.92901C19.5746 9.01624 19.7537 9.16371 19.8795 9.35275C20.0053 9.54178 20.0722 9.76389 20.0717 9.99096C20.0622 10.2885 19.937 10.5706 19.7227 10.7773C19.5083 10.9839 19.2218 11.0987 18.9241 11.0973V11.1361ZM0 0.0388196V29.0024H29V0L0 0.0388196ZM23.0486 17.8178C23.046 19.2137 22.4892 20.5514 21.5006 21.5369C20.5119 22.5223 19.1724 23.0748 17.7765 23.0729H11.2259C9.83255 23.0716 8.49664 22.5175 7.5114 21.5323C6.52616 20.547 5.97209 19.2111 5.97081 17.8178V11.2671C5.96985 10.5761 6.10502 9.89159 6.36859 9.25276C6.63217 8.61394 7.01899 8.03328 7.50697 7.54394C7.99495 7.05461 8.57453 6.66619 9.21262 6.40085C9.85072 6.13551 10.5348 5.99845 11.2259 5.99749H17.7765C18.4689 5.99685 19.1545 6.13271 19.7943 6.39727C20.434 6.66184 21.0154 7.04993 21.505 7.53936C21.9947 8.02879 22.383 8.60995 22.6479 9.24959C22.9128 9.88924 23.0489 10.5748 23.0486 11.2671V17.8178ZM17.1579 7.62788H11.8543C10.7258 7.62659 9.64303 8.07329 8.84375 8.86984C8.04446 9.6664 7.59406 10.7477 7.59149 11.8761V17.1773C7.60301 18.2989 8.05767 19.3705 8.85627 20.1582C9.65486 20.9459 10.7326 21.3857 11.8543 21.3818H17.1579C17.7156 21.3818 18.2679 21.2719 18.7832 21.0584C19.2985 20.8449 19.7667 20.5319 20.161 20.1374C20.5552 19.7429 20.8679 19.2746 21.0812 18.7591C21.2944 18.2437 21.404 17.6914 21.4037 17.1336V11.8421C21.4024 10.7162 20.9547 9.63681 20.1588 8.84046C19.3629 8.04411 18.2838 7.59584 17.1579 7.59391V7.62788ZM14.5061 19.0309C13.6168 19.0309 12.7475 18.7671 12.0081 18.273C11.2688 17.7789 10.6926 17.0767 10.3524 16.255C10.0122 15.4334 9.92327 14.5294 10.0969 13.6572C10.2706 12.7851 10.699 11.984 11.328 11.3554C11.957 10.7268 12.7583 10.2988 13.6305 10.1256C14.5027 9.95238 15.4067 10.0418 16.2282 10.3824C17.0496 10.723 17.7516 11.2996 18.2453 12.0393C18.739 12.7789 19.0022 13.6483 19.0018 14.5376C18.989 15.7217 18.5098 16.8531 17.6681 17.6861C16.8265 18.5191 15.6903 18.9866 14.5061 18.9872V19.0309ZM18.9241 11.141C18.697 11.141 18.4751 11.0736 18.2863 10.9474C18.0975 10.8212 17.9505 10.6418 17.8637 10.432C17.7769 10.2222 17.7543 9.99129 17.7988 9.76862C17.8433 9.54594 17.9528 9.34147 18.1135 9.18108C18.2743 9.02068 18.479 8.91158 18.7017 8.86757C18.9245 8.82357 19.1553 8.84664 19.365 8.93387C19.5746 9.0211 19.7537 9.16856 19.8795 9.3576C20.0053 9.54663 20.0722 9.76875 20.0717 9.99582C20.061 10.2925 19.9352 10.5734 19.721 10.779C19.5068 10.9846 19.221 11.0988 18.9241 11.0973V11.141ZM17.1579 7.63758H11.8543C10.7258 7.63629 9.64303 8.08299 8.84375 8.87955C8.04446 9.67611 7.59406 10.7574 7.59149 11.8858V17.187C7.60555 18.3069 8.06133 19.376 8.85965 20.1616C9.65797 20.9472 10.7342 21.3858 11.8543 21.3818H17.1579C17.7156 21.3818 18.2679 21.2719 18.7832 21.0584C19.2985 20.8449 19.7667 20.5319 20.161 20.1374C20.5552 19.7429 20.8679 19.2746 21.0812 18.7591C21.2944 18.2437 21.404 17.6914 21.4037 17.1336V11.8421C21.4024 10.7162 20.9547 9.63681 20.1588 8.84046C19.3629 8.04411 18.2838 7.59584 17.1579 7.59391V7.63758ZM14.5061 19.0406C13.6168 19.0406 12.7475 18.7768 12.0081 18.2827C11.2688 17.7886 10.6926 17.0864 10.3524 16.2648C10.0122 15.4431 9.92327 14.5391 10.0969 13.6669C10.2706 12.7948 10.699 11.9937 11.328 11.3651C11.957 10.7365 12.7583 10.3085 13.6305 10.1353C14.5027 9.96209 15.4067 10.0515 16.2282 10.3921C17.0496 10.7327 17.7516 11.3093 18.2453 12.049C18.739 12.7886 19.0022 13.658 19.0018 14.5473C18.9865 15.7297 18.5061 16.8586 17.6647 17.6895C16.8234 18.5205 15.6886 18.9867 14.5061 18.9872V19.0406ZM18.9241 11.1507C18.697 11.1507 18.4751 11.0833 18.2863 10.9571C18.0975 10.8309 17.9505 10.6515 17.8637 10.4417C17.7769 10.2319 17.7543 10.001 17.7988 9.77833C17.8433 9.55565 17.9528 9.35118 18.1135 9.19078C18.2743 9.03039 18.479 8.92128 18.7017 8.87727C18.9245 8.83327 19.1553 8.85635 19.365 8.94357C19.5746 9.0308 19.7537 9.17827 19.8795 9.3673C20.0053 9.55634 20.0722 9.77845 20.0717 10.0055C20.0585 10.3005 19.9317 10.579 19.7178 10.7825C19.5038 10.986 19.2194 11.0988 18.9241 11.0973V11.1507ZM17.1579 7.64729H11.8543C10.7258 7.646 9.64303 8.0927 8.84375 8.88926C8.04446 9.68582 7.59406 10.7671 7.59149 11.8955V17.1967C7.60809 18.3149 8.06498 19.3815 8.86303 20.1651C9.66107 20.9486 10.7359 21.3858 11.8543 21.3818H17.1579C17.7156 21.3818 18.2679 21.2719 18.7832 21.0584C19.2985 20.8449 19.7667 20.5319 20.161 20.1374C20.5552 19.7429 20.8679 19.2746 21.0812 18.7591C21.2944 18.2437 21.404 17.6914 21.4037 17.1336V11.8421C21.4024 10.7162 20.9547 9.63681 20.1588 8.84046C19.3629 8.04411 18.2838 7.59584 17.1579 7.59391V7.64729ZM14.5061 19.0503C13.6168 19.0503 12.7475 18.7866 12.0081 18.2925C11.2688 17.7984 10.6926 17.0961 10.3524 16.2745C10.0122 15.4528 9.92327 14.5488 10.0969 13.6766C10.2706 12.8045 10.699 12.0034 11.328 11.3748C11.957 10.7462 12.7583 10.3182 13.6305 10.145C14.5027 9.9718 15.4067 10.0612 16.2282 10.4018C17.0496 10.7424 17.7516 11.3191 18.2453 12.0587C18.739 12.7983 19.0022 13.6677 19.0018 14.557C18.9839 15.7378 18.5025 16.8641 17.6614 17.693C16.8203 18.5218 15.6869 18.9867 14.5061 18.9872V19.0503ZM18.9241 11.1604C18.697 11.1604 18.4751 11.093 18.2863 10.9668C18.0975 10.8406 17.9505 10.6612 17.8637 10.4514C17.7769 10.2416 17.7543 10.0107 17.7988 9.78802C17.8433 9.56535 17.9528 9.36088 18.1135 9.20048C18.2743 9.04009 18.479 8.93098 18.7017 8.88698C18.9245 8.84297 19.1553 8.86604 19.365 8.95327C19.5746 9.0405 19.7537 9.18797 19.8795 9.37701C20.0053 9.56605 20.0722 9.78815 20.0717 10.0152C20.0561 10.3085 19.9282 10.5845 19.7145 10.786C19.5009 10.9875 19.2178 11.099 18.9241 11.0973V11.1604Z" fill="#4F4F4F"/>
</svg>
