<svg width="30" height="29" viewBox="0 0 30 29" fill="none" xmlns="http://www.w3.org/2000/svg">
<path d="M17.5653 13.8085L12.8977 11.1399C12.8592 11.1168 12.8154 11.1043 12.7705 11.1037C12.7257 11.103 12.6814 11.1142 12.6423 11.1361C12.6031 11.158 12.5705 11.1899 12.5476 11.2284C12.5247 11.267 12.5124 11.311 12.512 11.3558V16.6929C12.5099 16.7392 12.5201 16.7852 12.5416 16.8262C12.5631 16.8673 12.595 16.9019 12.6342 16.9265C12.6734 16.9512 12.7185 16.965 12.7648 16.9666C12.811 16.9682 12.8569 16.9575 12.8977 16.9355L17.5653 14.267C17.6056 14.2438 17.6391 14.2104 17.6624 14.1702C17.6857 14.1299 17.6979 14.0842 17.6979 14.0377C17.6979 13.9912 17.6857 13.9455 17.6624 13.9053C17.6391 13.865 17.6056 13.8317 17.5653 13.8085Z" fill="#4F4F4F"/>
<path d="M0 0V29H29.0024V0H0ZM23.8084 19.5921C23.7637 19.9872 23.5833 20.3546 23.298 20.6316C23.0126 20.9085 22.64 21.0779 22.2437 21.1108C17.0887 21.4819 11.9137 21.4819 6.75875 21.1108C6.36261 21.0774 5.99024 20.9079 5.70497 20.6311C5.41969 20.3542 5.23913 19.9871 5.19399 19.5921C4.77423 16.0862 4.77423 12.5427 5.19399 9.03672C5.23861 8.64132 5.41894 8.27362 5.70426 7.99626C5.98957 7.71891 6.36224 7.54905 6.75875 7.51565C11.9137 7.14447 17.0887 7.14447 22.2437 7.51565C22.6404 7.5486 23.0133 7.71831 23.2987 7.99575C23.5841 8.27319 23.7643 8.64115 23.8084 9.03672C24.2282 12.5427 24.2282 16.0862 23.8084 19.5921Z" fill="#4F4F4F"/>
</svg>
