<svg class="lens" xmlns="http://www.w3.org/2000/svg" viewBox="0 0 20 20">
    <g>
        <path style="fill:#fff" d="M7.59,15.43A7.66,7.66,0,0,1,0,7.72,7.67,7.67,0,0,1,7.59,0a7.67,7.67,0,0,1,7.6,7.72A7.67,7.67,0,0,1,7.59,15.43ZM7.59,2A5.66,5.66,0,0,0,2,7.72a5.66,5.66,0,0,0,5.59,5.71,5.66,5.66,0,0,0,5.6-5.71A5.66,5.66,0,0,0,7.59,2Z"></path>
        <path style="fill:#fff" d="M18.65,20a1.3,1.3,0,0,1-.95-.4l-4.23-4.22a1.35,1.35,0,0,1,1.91-1.91L19.6,17.7a1.36,1.36,0,0,1,0,1.91A1.34,1.34,0,0,1,18.65,20Z"></path>
    </g>
</svg>