<?xml version="1.0" encoding="UTF-8" standalone="no"?>
<svg width="100px" height="49px" viewBox="0 0 100 49" version="1.1" xmlns="http://www.w3.org/2000/svg" xmlns:xlink="http://www.w3.org/1999/xlink">
    <title>Key</title>
    <defs></defs>
    <g id="Page-1" stroke="none" stroke-width="1" fill="none" fill-rule="evenodd">
        <g id="Artboard-1" transform="translate(-167.000000, -156.000000)" fill="#ffffff">
            <g id="key" transform="translate(167.000000, 156.000000)">
                <path d="M98.923,20.4245106 L90.874,12.1297021 L43.727,12.1297021 C39.696,4.87659574 32.131,-0.0194042553 23.446,-6.77626358e-21 C10.507,-0.0275744681 0.029,10.7836596 0,24.1011064 C0.029,37.4502128 10.507,48.2604255 23.446,48.2808511 C32.107,48.2665532 39.655,43.3858723 43.693,36.1521702 L53.176,36.1521702 L60.688,28.482383 L66.435,34.3537021 L71.952,28.7182979 L77.621,34.5058723 L83.368,28.6396596 L89.115,34.5058723 L98.924,24.4922553 C100.341,22.9838298 100.377,21.9257872 98.923,20.4245106 L98.923,20.4245106 Z M13.18,30.4422128 C9.722,30.4095319 6.941,27.5356596 6.973,24.0224681 C6.941,20.4612766 9.722,17.5894468 13.18,17.6057872 C16.581,17.5874043 19.362,20.4612766 19.388,24.0224681 C19.363,27.5356596 16.582,30.4085106 13.18,30.4422128 L13.18,30.4422128 Z" id="shape"></path>
            </g>
        </g>
    </g>
</svg>