<?xml version="1.0" encoding="UTF-8" standalone="no"?>
<!DOCTYPE svg PUBLIC "-//W3C//DTD SVG 1.1//EN" "http://www.w3.org/Graphics/SVG/1.1/DTD/svg11.dtd">
<svg width="100%" height="100%" viewBox="0 0 26 19" version="1.1" xmlns="http://www.w3.org/2000/svg" xmlns:xlink="http://www.w3.org/1999/xlink" xml:space="preserve" xmlns:serif="http://www.serif.com/" style="fill-rule:evenodd;clip-rule:evenodd;stroke-linejoin:round;stroke-miterlimit:2;">
    <path d="M26,1.5C26,0.672 25.328,0 24.5,0L1.5,0C0.672,0 0,0.672 0,1.5C0,2.328 0.672,3 1.5,3L24.5,3C25.328,3 26,2.328 26,1.5Z" style="fill:rgb(79,79,79);"/>
    <path d="M26,9.5C26,8.672 25.328,8 24.5,8L1.5,8C0.672,8 0,8.672 0,9.5C0,10.328 0.672,11 1.5,11L24.5,11C25.328,11 26,10.328 26,9.5Z" style="fill:rgb(79,79,79);"/>
    <path d="M26,17.5C26,16.672 25.328,16 24.5,16L1.5,16C0.672,16 0,16.672 0,17.5C0,18.328 0.672,19 1.5,19L24.5,19C25.328,19 26,18.328 26,17.5Z" style="fill:rgb(79,79,79);"/>
</svg>
