<svg width="162" height="129" viewBox="0 0 162 129" fill="none" xmlns="http://www.w3.org/2000/svg">
<path d="M153.036 129H0V0H153.036V22.7128H146.476V6.56026H6.56026V122.44H146.476V106.287H153.036V129Z" fill="url(#paint0_linear)"/>
<path d="M46.747 51.4346C46.747 56.6167 42.5572 59.7039 36.3277 59.7039C31.7521 59.7039 29.4367 59.2628 25.1367 57.168L27.1213 52.9231C30.6495 54.6321 33.1303 54.9628 36.4931 54.9628C39.4149 54.9628 41.179 53.9154 41.179 51.9308C41.179 50.1115 39.3598 49.2846 35.4457 48.4026C29.9329 47.1346 25.4124 45.591 25.4124 40.2436C25.4124 35.5026 29.2162 32.1398 35.3354 32.1398C39.4149 32.1398 42.9983 33.1872 45.6444 34.3449L43.4393 38.7C41.0688 37.7077 37.7611 36.8808 35.2252 36.8808C32.4688 36.8808 30.9252 38.0936 30.9252 39.8026C30.9252 41.7321 32.8547 42.5039 36.879 43.441C42.7777 44.6539 46.747 46.4731 46.747 51.4346Z" fill="white"/>
<path d="M78.7212 32.4154V59.318H73.2084V44.4333L64.8841 56.1205L56.5046 44.4333V59.318H51.0469V32.4154H53.693L64.8289 47.8513L75.9648 32.4154H78.7212Z" fill="white"/>
<path d="M102.15 53.8603H90.1321L87.7064 59.318H81.918L94.7628 32.4154H97.4641L110.364 59.318H104.576L102.15 53.8603ZM92.0616 49.3397H100.221L96.141 40.4641L92.0616 49.3397Z" fill="white"/>
<path d="M125.084 52.3718C124.753 52.4269 124.422 52.4269 124.036 52.4269H119.075V59.318H113.617V32.4154H125.47C133.353 32.4154 135.999 37.1013 135.999 42.118C135.999 46.7487 134.07 49.7808 130.542 51.3244L136.826 59.3731H130.321L125.084 52.3718ZM119.075 47.9064H123.871C128.226 47.9064 130.266 45.7013 130.266 42.5039C130.266 39.6923 128.833 37.1013 124.588 37.1013H119.075V47.9064Z" fill="white"/>
<path d="M161.634 37.1564H153.034V59.3731H147.521V37.1564H138.977V32.4154H161.634V37.1564Z" fill="white"/>
<path d="M73.7604 83.5192C73.7604 91.1269 67.3655 97.2461 59.4271 97.2461C51.5437 97.2461 45.0938 91.0718 45.0938 83.5192C45.0938 75.9115 51.4886 69.7923 59.4271 69.7923C67.3655 69.7923 73.7604 75.9115 73.7604 83.5192ZM68.1925 83.5192C68.1925 78.7782 64.2784 74.8641 59.4271 74.8641C54.5758 74.8641 50.7168 78.7782 50.7168 83.5192C50.7168 88.3154 54.6309 92.1743 59.4271 92.1743C64.2232 92.1743 68.1925 88.3154 68.1925 83.5192Z" fill="white"/>
<path d="M89.362 70.0128C97.2454 70.0128 99.8915 74.6987 99.8915 79.7154C99.8915 87.1026 95.0954 90.0244 88.2595 90.0244H83.7389V96.9154H78.2812V70.0128H89.362ZM87.7633 85.5038C92.1184 85.5038 94.1582 83.2987 94.1582 80.1564C94.1582 77.3449 92.7248 74.7538 88.48 74.7538H83.7389V85.5038H87.7633Z" fill="white"/>
<path d="M124.423 92.2295V96.9705H103.75V70.0128H123.596V74.7538H109.042V81.5897H121.281V86.1654H109.097V92.1744H124.423V92.2295Z" fill="white"/>
<path d="M153.034 70.0128V96.9154H150.332L134.235 79.9359V96.9154H128.777V70.0128H131.423L147.466 86.9923V70.0128H153.034Z" fill="white"/>
<path d="M25.1367 77.841C25.1367 76.4077 25.4675 75.0295 26.1842 73.8167C26.9008 72.5487 27.8931 71.6115 29.1059 70.8949C30.3188 70.1782 31.697 69.7923 33.1854 69.7923C34.6188 69.7923 35.997 70.1782 37.2649 70.8949C38.5329 71.6115 39.5252 72.6038 40.1867 73.8167C40.9034 75.0846 41.2342 76.4077 41.2342 77.841C41.2342 79.3295 40.8483 80.6526 40.1316 81.9205C39.4149 83.1885 38.4226 84.1256 37.1547 84.8423C35.8867 85.559 34.5636 85.8897 33.1303 85.8897C31.6418 85.8897 30.3188 85.5038 29.0508 84.7872C27.7829 84.0705 26.8457 83.0782 26.129 81.8102C25.4675 80.6526 25.1367 79.3295 25.1367 77.841ZM26.9008 77.841C26.9008 78.9436 27.1765 79.991 27.6726 80.9282C28.2239 81.8654 28.9406 82.6372 29.9329 83.2436C30.9252 83.85 31.9726 84.1256 33.1854 84.1256C34.3431 84.1256 35.4457 83.85 36.3829 83.2436C37.3752 82.6923 38.0918 81.9205 38.6431 80.9282C39.1944 79.991 39.4701 78.9436 39.4701 77.7859C39.4701 76.6833 39.1944 75.6359 38.6431 74.6987C38.0918 73.7615 37.3752 72.9897 36.3829 72.3833C35.3906 71.832 34.3431 71.5013 33.1854 71.5013C32.0277 71.5013 30.9803 71.7769 30.0431 72.3282C29.0508 72.8795 28.279 73.6513 27.7277 74.5885C27.1765 75.6359 26.9008 76.6833 26.9008 77.841ZM33.4611 79.7154C33.3508 79.7154 33.2406 79.7154 33.1854 79.7154H31.7521V81.7H30.2085V74.0372H33.5713C35.8316 74.0372 36.5483 75.3602 36.5483 76.7936C36.5483 78.1167 35.997 78.9987 35.0047 79.3846L36.7688 81.6449H34.8944L33.4611 79.7154ZM31.7521 78.4474H33.1303C34.3431 78.4474 34.9495 77.841 34.9495 76.9038C34.9495 76.132 34.5636 75.3602 33.3508 75.3602H31.7521V78.4474Z" fill="white"/>
<defs>
<linearGradient id="paint0_linear" x1="0" y1="64.4904" x2="153.027" y2="64.4904" gradientUnits="userSpaceOnUse">
<stop stop-color="#32378D"/>
<stop offset="1" stop-color="#E83F8D"/>
</linearGradient>
</defs>
</svg>
