<svg width="160" height="128" viewBox="0 0 160 128" fill="none" xmlns="http://www.w3.org/2000/svg">
<path d="M151.487 127.694H0V0H151.487V22.4829H144.993V6.49386H6.49386V121.201H144.993V105.211H151.487V127.694Z" fill="url(#paint0_linear)"/>
<path d="M46.2744 50.9141C46.2744 56.0437 42.127 59.0996 35.9606 59.0996C31.4312 59.0996 29.1393 58.663 24.8828 56.5894L26.8473 52.3875C30.3398 54.0791 32.7955 54.4066 36.1243 54.4066C39.0165 54.4066 40.7628 53.3697 40.7628 51.4052C40.7628 49.6044 38.9619 48.7858 35.0875 47.9127C29.6304 46.6576 25.1557 45.1296 25.1557 39.8363C25.1557 35.1433 28.921 31.8145 34.9783 31.8145C39.0165 31.8145 42.5636 32.8513 45.183 33.9973L43.0001 38.3083C40.6536 37.3261 37.3794 36.5075 34.8692 36.5075C32.1407 36.5075 30.6127 37.7081 30.6127 39.3997C30.6127 41.3097 32.5227 42.0737 36.5063 43.0014C42.3453 44.2019 46.2744 46.0027 46.2744 50.9141Z" fill="black"/>
<path d="M77.9255 32.0873V58.7176H72.4685V43.9836L64.2284 55.5525L55.9337 43.9836V58.7176H50.5312V32.0873H53.1506L64.1738 47.367L75.197 32.0873H77.9255Z" fill="black"/>
<path d="M101.117 53.3151H89.2208L86.8197 58.7176H81.0898L93.8047 32.0873H96.4787L109.248 58.7176H103.518L101.117 53.3151ZM91.1308 48.8404H99.2072L95.169 40.0546L91.1308 48.8404Z" fill="black"/>
<path d="M123.819 51.8418C123.492 51.8963 123.165 51.8963 122.783 51.8963H117.871V58.7176H112.469V32.0873H124.201C132.005 32.0873 134.624 36.7258 134.624 41.6917C134.624 46.2756 132.714 49.2769 129.222 50.8049L135.443 58.7722H129.004L123.819 51.8418ZM117.871 47.4216H122.619C126.93 47.4216 128.949 45.2388 128.949 42.0737C128.949 39.2906 127.53 36.7258 123.328 36.7258H117.871V47.4216Z" fill="black"/>
<path d="M159.999 36.7804H151.486V58.7722H146.029V36.7804H137.57V32.0873H159.999V36.7804Z" fill="black"/>
<path d="M73.0133 82.6739C73.0133 90.2046 66.6831 96.2619 58.825 96.2619C51.0214 96.2619 44.6367 90.1501 44.6367 82.6739C44.6367 75.1432 50.9669 69.0859 58.825 69.0859C66.6831 69.0859 73.0133 75.1432 73.0133 82.6739ZM67.5017 82.6739C67.5017 77.9809 63.6272 74.1064 58.825 74.1064C54.0228 74.1064 50.2029 77.9809 50.2029 82.6739C50.2029 87.4215 54.0774 91.2415 58.825 91.2415C63.5726 91.2415 67.5017 87.4215 67.5017 82.6739Z" fill="black"/>
<path d="M88.4569 69.3042C96.2605 69.3042 98.8798 73.9427 98.8798 78.9086C98.8798 86.221 94.1322 89.1132 87.3655 89.1132H82.8907V95.9345H77.4883V69.3042H88.4569ZM86.8744 84.6385C91.1854 84.6385 93.2045 82.4557 93.2045 79.3452C93.2045 76.5621 91.7857 73.9973 87.5838 73.9973H82.8907V84.6385H86.8744Z" fill="black"/>
<path d="M123.163 91.296V95.9891H102.699V69.3042H122.345V73.9973H107.938V80.764H120.053V85.2933H107.993V91.2415H123.163V91.296Z" fill="black"/>
<path d="M151.487 69.3042V95.9345H148.814L132.879 79.1269V95.9345H127.477V69.3042H130.096L145.976 86.1119V69.3042H151.487Z" fill="black"/>
<path d="M24.8828 77.0532C24.8828 75.6344 25.2102 74.2701 25.9196 73.0696C26.6291 71.8144 27.6113 70.8868 28.8119 70.1773C30.0124 69.4679 31.3767 69.0859 32.8501 69.0859C34.2689 69.0859 35.6332 69.4679 36.8883 70.1773C38.1434 70.8868 39.1257 71.869 39.7805 73.0696C40.4899 74.3247 40.8173 75.6344 40.8173 77.0532C40.8173 78.5266 40.4353 79.8363 39.7259 81.0914C39.0165 82.3465 38.0342 83.2742 36.7791 83.9836C35.524 84.693 34.2143 85.0205 32.7955 85.0205C31.3221 85.0205 30.0124 84.6385 28.7573 83.9291C27.5022 83.2196 26.5745 82.2374 25.8651 80.9823C25.2102 79.8363 24.8828 78.5266 24.8828 77.0532ZM26.6291 77.0532C26.6291 78.1446 26.9019 79.1814 27.393 80.1091C27.9387 81.0368 28.6482 81.8008 29.6304 82.4011C30.6127 83.0014 31.6495 83.2742 32.8501 83.2742C33.996 83.2742 35.0875 83.0014 36.0151 82.4011C36.9974 81.8554 37.7068 81.0914 38.2525 80.1091C38.7982 79.1814 39.0711 78.1446 39.0711 76.9986C39.0711 75.9072 38.7982 74.8704 38.2525 73.9427C37.7068 73.015 36.9974 72.251 36.0151 71.6507C35.0329 71.105 33.996 70.7776 32.8501 70.7776C31.7041 70.7776 30.6673 71.0505 29.7396 71.5962C28.7573 72.1419 27.9933 72.9059 27.4476 73.8336C26.9019 74.8704 26.6291 75.9072 26.6291 77.0532ZM33.1229 78.9086C33.0138 78.9086 32.9046 78.9086 32.8501 78.9086H31.4312V80.8731H29.9033V73.2878H33.2321C35.4694 73.2878 36.1789 74.5975 36.1789 76.0164C36.1789 77.326 35.6332 78.1992 34.6509 78.5812L36.3971 80.8185H34.5417L33.1229 78.9086ZM31.4312 77.6535H32.7955C33.996 77.6535 34.5963 77.0532 34.5963 76.1255C34.5963 75.3615 34.2143 74.5975 33.0138 74.5975H31.4312V77.6535Z" fill="black"/>
<defs>
<linearGradient id="paint0_linear" x1="0" y1="63.8377" x2="151.478" y2="63.8377" gradientUnits="userSpaceOnUse">
<stop stop-color="#32378D"/>
<stop offset="1" stop-color="#E83F8D"/>
</linearGradient>
</defs>
</svg>
