<svg width="360" height="42" viewBox="0 0 360 42" fill="none" xmlns="http://www.w3.org/2000/svg">
<path d="M10.8266 37.165C11.8908 37.165 12.9087 36.9317 13.7878 36.4187C14.7131 35.9522 15.4534 35.2526 16.0549 34.413L19.2936 37.165C18.2757 38.3777 17.0265 39.3572 15.5459 40.0569C14.0654 40.7565 12.4923 41.0831 10.8266 41.0831C7.81924 41.0831 5.27452 40.0569 3.19247 38.0046C1.11042 35.9522 0 33.4801 0 30.5882C0 27.6962 1.06416 25.1775 3.1462 23.1251C5.27452 21.0262 7.81924 20 10.8266 20C12.4923 20 14.0654 20.3732 15.5459 21.0728C17.0265 21.7725 18.2757 22.752 19.2936 23.9647L16.0549 26.7167C15.4534 25.8771 14.7131 25.2241 13.7878 24.711C12.8624 24.2446 11.8908 23.9647 10.8266 23.9647C9.0222 23.9647 7.4491 24.5711 6.19987 25.8305C4.95064 27.0432 4.30289 28.6291 4.30289 30.5882C4.30289 32.5006 4.95064 34.0865 6.19987 35.2992C7.4491 36.5586 8.97593 37.165 10.8266 37.165Z" fill="#4F4F4F"/>
<path d="M37.8477 40.8965L35.997 36.6985H26.836L24.9853 40.8965H20.5898L30.3986 20.2332H32.4806L42.2894 40.8965H37.8477ZM31.4165 26.3902L28.3165 33.2002H34.5164L31.4165 26.3902Z" fill="#4F4F4F"/>
<path d="M57.4195 40.8965L53.4868 35.5791C53.348 35.5791 53.0704 35.6257 52.7002 35.6257H48.9063V40.9431H44.7422V20.2332H53.7644C56.5404 20.2332 58.5762 20.9329 59.8717 22.3322C61.1672 23.7315 61.7687 25.504 61.7687 27.6496C61.7687 31.1479 60.3807 33.4801 57.6046 34.6928L62.3702 40.8498H57.4195V40.8965ZM48.86 23.8714V32.1274H52.5152C54.1345 32.1274 55.3375 31.7543 56.1703 31.008C57.0031 30.2617 57.4195 29.2821 57.4195 27.9761C57.4195 26.7634 57.0957 25.7838 56.4016 25.0375C55.7076 24.2446 54.5972 23.8714 53.1166 23.8714H48.86Z" fill="#4F4F4F"/>
<path d="M94.7553 20.2332L86.7048 40.8965H84.9929L79.1631 27.3231L73.3797 40.8965H71.6678L63.6172 20.2332H68.1052L72.7319 32.7804L78.3303 20.2332H80.0422L85.6406 32.7804L90.2674 20.2332H94.7553Z" fill="#4F4F4F"/>
<path d="M113.078 40.8965L111.227 36.6985H102.066L100.216 40.8965H95.8203L105.583 20.2332H107.665L117.474 40.8965H113.078ZM106.647 26.3902L103.547 33.2002H109.747L106.647 26.3902Z" fill="#4F4F4F"/>
<path d="M128.022 28.6291C130.52 29.1888 132.371 29.9351 133.62 30.8214C134.869 31.7076 135.471 33.0603 135.471 34.7861C135.471 36.7452 134.73 38.331 133.296 39.4505C131.862 40.57 129.919 41.1297 127.513 41.1297C125.708 41.1297 124.228 40.9898 123.071 40.7565C121.914 40.5233 120.572 39.9636 118.953 39.1706L120.48 35.9056C121.775 36.5119 122.932 36.9317 123.996 37.165C125.06 37.3982 126.263 37.4915 127.651 37.4915C128.762 37.4915 129.641 37.3049 130.289 36.8851C130.936 36.4653 131.214 35.9056 131.214 35.1593C131.214 34.5062 130.89 33.9465 130.242 33.5734C129.595 33.2002 128.438 32.7804 126.865 32.4539C125.893 32.2207 125.06 32.0341 124.413 31.8475C123.765 31.661 123.071 31.3811 122.377 31.0546C121.683 30.7281 121.128 30.3549 120.711 29.9351C120.295 29.5153 119.971 29.0023 119.693 28.3492C119.416 27.7429 119.277 27.0432 119.277 26.2503C119.277 24.4312 119.971 22.9386 121.313 21.7725C122.701 20.6064 124.505 20.0466 126.819 20.0466C129.502 20.0466 132.139 20.6064 134.684 21.7258L133.018 25.0842C130.844 24.1513 128.762 23.6849 126.772 23.6849C125.754 23.6849 124.968 23.8714 124.366 24.2912C123.811 24.711 123.487 25.2241 123.487 25.9238C123.487 26.6234 123.811 27.1832 124.505 27.5563C125.199 27.8828 126.356 28.256 128.022 28.6291Z" fill="#4F4F4F"/>
<path d="M152.222 20.2332H156.293V40.8965H152.222V33.8999H142.783V40.8965H138.758V20.2332H142.783V30.3083H152.222V20.2332Z" fill="#4F4F4F"/>
<path d="M185.163 30.7747L188.077 31.7076C187.152 33.3868 186.134 34.9727 184.977 36.4187L187.43 38.8441L184.977 41.0831L182.71 38.8441C180.952 40.3368 179.148 41.0831 177.297 41.0831C174.937 41.0831 173.04 40.57 171.652 39.4972C170.264 38.4243 169.57 36.9784 169.57 35.066C169.57 33.8999 169.94 32.8271 170.681 31.8942C171.421 30.9147 172.485 30.1684 173.873 29.562C172.67 28.3493 172.069 27.0432 172.069 25.5973C172.069 23.8248 172.624 22.4721 173.688 21.4926C174.752 20.5131 176.14 20 177.806 20C179.518 20 180.952 20.5131 182.016 21.4926C183.08 22.4721 183.636 23.6849 183.636 25.1775C183.636 26.3436 183.266 27.463 182.479 28.4892C181.692 29.5154 180.628 30.3083 179.24 30.868L182.757 34.2264C183.266 33.62 184.052 32.5006 185.163 30.7747ZM177.436 37.8646C178.546 37.8646 179.61 37.4448 180.582 36.6052L176.002 32.0808C174.382 32.7338 173.549 33.7133 173.549 34.9727C173.549 35.7656 173.919 36.4653 174.613 37.025C175.354 37.5848 176.279 37.8646 177.436 37.8646ZM177.806 22.9386C177.112 22.9386 176.557 23.2184 176.094 23.7782C175.631 24.3379 175.4 24.9909 175.4 25.6906C175.4 25.9238 175.446 26.157 175.493 26.3902C175.539 26.6234 175.631 26.81 175.724 26.9966C175.816 27.1365 175.909 27.3231 176.094 27.5563C176.233 27.7429 176.372 27.9295 176.464 27.9761C176.557 28.0694 176.696 28.2093 176.881 28.3493C177.066 28.4892 177.158 28.5825 177.204 28.6291C178.037 28.3959 178.731 28.0228 179.333 27.5097C179.934 26.9966 180.258 26.3902 180.258 25.6439C180.258 24.8976 180.027 24.2446 179.61 23.7315C179.194 23.2184 178.593 22.9386 177.806 22.9386Z" fill="#4F4F4F"/>
<path d="M218.614 30.5882C218.614 33.3402 217.688 35.7656 215.791 37.818C213.894 39.8703 211.627 40.8965 208.99 40.8965H200.199V20.2332H208.296C211.165 20.2332 213.571 21.2594 215.606 23.2651C217.596 25.2708 218.614 27.7429 218.614 30.5882ZM204.224 37.0717H208.62C210.239 37.0717 211.627 36.4187 212.784 35.1593C213.941 33.8532 214.542 32.3606 214.542 30.6348C214.542 28.8157 213.941 27.3231 212.691 26.0171C211.442 24.711 210.008 24.1047 208.296 24.1047H204.224V37.0717Z" fill="#4F4F4F"/>
<path d="M226.111 37.2583H237.817V40.8965H222.086V20.2332H237.215V23.8714H226.157V29.0956H235.411V32.5939H226.157V37.2583H226.111Z" fill="#4F4F4F"/>
<path d="M257.247 20.2332V23.8714H250.723V40.8965H246.559V23.8714H240.035V20.2332H257.247Z" fill="#4F4F4F"/>
<path d="M275.754 40.8965L273.903 36.6985H264.742L262.892 40.8965H258.496L268.259 20.2332H270.341L280.149 40.8965H275.754ZM269.323 26.3902L266.223 33.2002H272.423L269.323 26.3902Z" fill="#4F4F4F"/>
<path d="M286.906 20.2332V40.8965H282.742V20.2332H286.906Z" fill="#4F4F4F"/>
<path d="M295.371 37.3982H305.92V40.8965H291.207V20.2332H295.371V37.3982Z" fill="#4F4F4F"/>
<path d="M313.141 20.2332V40.8965H308.977V20.2332H313.141Z" fill="#4F4F4F"/>
<path d="M331.691 20.2332H335.855V40.8965H333.82L321.559 27.8828V40.8965H317.395V20.2332H319.43L331.645 33.2469V20.2332H331.691Z" fill="#4F4F4F"/>
<path d="M349.738 30.5415H359.084V38.0978C356.585 40.1035 353.624 41.1297 350.154 41.1297C347.147 41.1297 344.602 40.1035 342.474 38.0512C340.345 35.9989 339.281 33.5267 339.281 30.5882C339.281 27.6962 340.345 25.1775 342.474 23.1251C344.602 21.0728 347.147 20.0466 350.154 20.0466C353.485 20.0466 356.215 21.0262 358.344 22.9852L355.706 25.9238C354.272 24.6177 352.375 23.9647 350.108 23.9647C348.303 23.9647 346.73 24.6177 345.435 25.9238C344.139 27.2298 343.492 28.7691 343.492 30.5882C343.492 32.5006 344.139 34.1331 345.435 35.4391C346.73 36.7452 348.303 37.3982 350.108 37.3982C351.912 37.3982 353.485 36.9317 354.873 35.9989V34.0865H349.691V30.5415H349.738Z" fill="#4F4F4F"/>
<path d="M64 1.76531H66.4673C67.957 1.76531 68.8881 2.61009 68.8881 4.1119C68.8881 5.426 67.957 6.55236 65.9552 6.55236H65.5828V5.80145H65.9552C67.1191 5.80145 67.9105 5.33213 67.9105 4.15884C67.9105 3.03247 67.3518 2.46929 66.188 2.46929H64.8845V9.27441H64V1.76531Z" fill="#4F4F4F"/>
<path d="M70.0508 3.45485H70.8887V4.20576C71.1215 3.78337 71.7267 3.31406 72.5181 3.31406C72.844 3.31406 73.0767 3.36099 73.1699 3.40792L73.0302 4.1119C72.844 4.06496 72.7043 4.01803 72.3784 4.01803C71.6801 4.01803 71.1681 4.53428 70.8887 4.95667V9.22747H70.0508V3.45485Z" fill="#4F4F4F"/>
<path d="M73.7305 6.45849C73.7305 4.1119 74.8477 3.31406 76.2909 3.31406C77.7341 3.31406 78.3858 4.29962 78.3858 6.22383V6.55235H74.5684C74.615 8.38269 75.4995 8.71122 76.7099 8.71122C77.1289 8.71122 77.8737 8.52349 78.153 8.47656L78.2927 9.18054C78.1065 9.2744 77.4082 9.46213 76.4771 9.46213C74.8012 9.36826 73.7305 8.66428 73.7305 6.45849ZM77.5013 5.89531C77.5013 4.72201 77.0823 3.92417 76.1978 3.92417C75.3133 3.92417 74.7081 4.58122 74.615 5.89531H77.5013Z" fill="#4F4F4F"/>
<path d="M79.8275 3.45485H80.6654V4.1119C81.131 3.73644 81.8293 3.31406 82.5276 3.31406C83.4586 3.31406 83.8776 3.68951 84.1104 4.15883C84.5759 3.78337 85.2742 3.31406 86.1587 3.31406C87.8346 3.31406 87.9277 4.53428 87.9277 5.51985V9.2744H87.0898V5.70758C87.0898 4.81587 86.9501 4.1119 85.926 4.1119C85.2742 4.1119 84.7156 4.44042 84.2035 4.81587C84.25 5.05053 84.25 5.33212 84.25 5.56678V9.32133H83.4121V5.75451C83.4121 4.86281 83.319 4.1119 82.2483 4.1119C81.6896 4.1119 81.0379 4.53428 80.5723 4.8628V9.32133H79.7344V3.45485H79.8275Z" fill="#4F4F4F"/>
<path d="M89.5586 1.67145L90.2569 0.967468L90.9552 1.67145L90.2569 2.37542L89.5586 1.67145ZM89.8379 3.45485H90.6759V9.22747H89.8379V3.45485Z" fill="#4F4F4F"/>
<path d="M92.582 7.16247V3.45486H93.42V6.97475C93.42 7.86645 93.4665 8.61736 94.5373 8.61736C95.2821 8.61736 96.1201 8.05418 96.3994 7.91338V3.50179H97.1908V9.27441H96.3994V8.61736C95.9339 8.89895 95.2821 9.4152 94.3511 9.4152C92.7217 9.36827 92.582 8.14804 92.582 7.16247Z" fill="#4F4F4F"/>
<path d="M99.1009 3.45485H99.9389V4.1119C100.404 3.73644 101.103 3.31406 101.801 3.31406C102.732 3.31406 103.151 3.68951 103.384 4.15883C103.849 3.78337 104.548 3.31406 105.432 3.31406C107.108 3.31406 107.201 4.53428 107.201 5.51985V9.2744H106.363V5.70758C106.363 4.81587 106.224 4.1119 105.199 4.1119C104.548 4.1119 103.989 4.44042 103.477 4.81587C103.523 5.05053 103.523 5.33212 103.523 5.56678V9.32133H102.686V5.75451C102.686 4.86281 102.592 4.1119 101.522 4.1119C100.963 4.1119 100.311 4.53428 99.8458 4.8628V9.32133H99.0078V3.45485H99.1009Z" fill="#4F4F4F"/>
<path d="M110.926 6.36462C110.926 4.48735 111.997 3.31406 113.626 3.31406C114.417 3.31406 114.883 3.50178 115.209 3.64258L114.976 4.29962C114.65 4.15883 114.278 4.01803 113.626 4.01803C112.555 4.01803 111.81 4.8628 111.81 6.31769C111.81 7.86644 112.322 8.61735 113.952 8.61735C114.417 8.61735 114.836 8.47656 115.069 8.47656L115.209 9.1336C115.022 9.18053 114.464 9.32133 113.905 9.32133C111.81 9.32133 110.926 8.47656 110.926 6.36462Z" fill="#4F4F4F"/>
<path d="M116 7.67872C116 6.27076 117.257 5.94224 118.188 5.94224H119.538V5.19133C119.538 4.2527 119.073 4.1119 118.048 4.1119C117.536 4.1119 116.885 4.29962 116.605 4.39349L116.419 3.73644C116.652 3.64258 117.397 3.40792 118.281 3.40792C119.538 3.40792 120.329 3.83031 120.329 4.95667V8.14804C120.329 8.57042 120.609 8.66429 120.888 8.71122L120.842 9.36826H120.702C120.236 9.36826 119.678 9.1336 119.631 8.61735C119.352 8.80508 118.747 9.36826 117.629 9.36826C116.605 9.32133 116 8.75815 116 7.67872ZM119.585 8.00724V6.50542L118.188 6.55235C117.303 6.59928 116.791 7.02167 116.791 7.58485C116.791 8.33576 117.21 8.61735 117.816 8.61735C118.56 8.66429 119.445 8.10111 119.585 8.00724Z" fill="#4F4F4F"/>
<path d="M122.516 3.45485H123.354V4.20576C123.586 3.78337 124.192 3.31406 124.983 3.31406C125.309 3.31406 125.542 3.36099 125.635 3.40792L125.495 4.1119C125.309 4.06496 125.169 4.01803 124.843 4.01803C124.145 4.01803 123.633 4.53428 123.354 4.95667V9.22747H122.516V3.45485Z" fill="#4F4F4F"/>
<path d="M128.43 6.36462C128.43 4.48735 129.5 3.31406 131.13 3.31406C131.921 3.31406 132.387 3.50178 132.713 3.64258L132.48 4.29962C132.154 4.15883 131.782 4.01803 131.13 4.01803C130.059 4.01803 129.314 4.8628 129.314 6.31769C129.314 7.86644 129.826 8.61735 131.456 8.61735C131.921 8.61735 132.34 8.47656 132.573 8.47656L132.713 9.1336C132.526 9.18053 131.968 9.32133 131.409 9.32133C129.314 9.32133 128.43 8.47656 128.43 6.36462Z" fill="#4F4F4F"/>
<path d="M133.551 7.67872C133.551 6.27076 134.808 5.94224 135.739 5.94224H137.089V5.19133C137.089 4.2527 136.623 4.1119 135.599 4.1119C135.087 4.1119 134.435 4.29962 134.156 4.39349L133.97 3.73644C134.203 3.64258 134.947 3.40792 135.832 3.40792C137.089 3.40792 137.88 3.83031 137.88 4.95667V8.14804C137.88 8.57042 138.16 8.66429 138.439 8.71122L138.392 9.36826H138.253C137.787 9.36826 137.228 9.1336 137.182 8.61735C136.903 8.80508 136.297 9.36826 135.18 9.36826C134.156 9.32133 133.551 8.75815 133.551 7.67872ZM137.135 8.00724V6.50542L135.739 6.55235C134.854 6.59928 134.342 7.02167 134.342 7.58485C134.342 8.33576 134.761 8.61735 135.366 8.61735C136.111 8.66429 136.949 8.10111 137.135 8.00724Z" fill="#4F4F4F"/>
<path d="M140.066 3.45485H140.904V4.20576C141.137 3.78337 141.742 3.31406 142.534 3.31406C142.86 3.31406 143.092 3.36099 143.185 3.40792L143.046 4.1119C142.86 4.06496 142.72 4.01803 142.394 4.01803C141.696 4.01803 141.184 4.53428 140.904 4.95667V9.22747H140.066V3.45485Z" fill="#4F4F4F"/>
<path d="M143.746 6.45849C143.746 4.1119 144.863 3.31406 146.307 3.31406C147.75 3.31406 148.401 4.29962 148.401 6.22383V6.55235H144.584C144.631 8.38269 145.515 8.71122 146.725 8.71122C147.144 8.71122 147.889 8.52349 148.169 8.47656L148.308 9.18054C148.122 9.2744 147.424 9.46213 146.493 9.46213C144.817 9.36826 143.746 8.66428 143.746 6.45849ZM147.517 5.89531C147.517 4.72201 147.098 3.92417 146.213 3.92417C145.329 3.92417 144.724 4.58122 144.631 5.89531H147.517Z" fill="#4F4F4F"/>
<path d="M152.078 3.45485H152.916V3.92417C153.289 3.64258 153.894 3.31406 154.499 3.31406C155.989 3.31406 156.827 4.34656 156.827 6.1769C156.827 8.57042 155.523 9.36826 154.08 9.36826C153.568 9.36826 153.195 9.32133 152.916 9.2744V11.5741H152.078V3.45485ZM155.989 6.41156C155.989 5.19133 155.709 4.06497 154.313 4.06497C153.754 4.06497 153.056 4.48735 152.87 4.62815V8.57042C153.102 8.61735 153.382 8.66428 154.08 8.66428C155.383 8.66428 155.989 7.67872 155.989 6.41156Z" fill="#4F4F4F"/>
<path d="M158.41 3.45485H159.248V4.20576C159.481 3.78337 160.086 3.31406 160.877 3.31406C161.203 3.31406 161.436 3.36099 161.529 3.40792L161.39 4.1119C161.203 4.06496 161.064 4.01803 160.738 4.01803C160.04 4.01803 159.527 4.53428 159.248 4.95667V9.22747H158.41V3.45485Z" fill="#4F4F4F"/>
<path d="M162.086 6.41156C162.086 4.39349 163.203 3.31406 164.739 3.31406C166.462 3.31406 167.3 4.39349 167.3 6.36463C167.3 8.3827 166.183 9.36826 164.693 9.36826C163.064 9.36826 162.086 8.33576 162.086 6.41156ZM166.415 6.36463C166.415 5.28519 166.09 4.01803 164.693 4.01803C163.296 4.01803 162.924 5.28519 162.924 6.36463C162.924 7.58485 163.343 8.66428 164.693 8.66428C166.09 8.66428 166.415 7.49099 166.415 6.36463Z" fill="#4F4F4F"/>
<path d="M168.465 6.36463C168.465 4.34656 169.722 3.31406 171.165 3.31406C171.724 3.31406 171.91 3.36099 172.329 3.45486V1.24906H173.167V9.22748H172.329V8.66429C172.003 8.99281 171.491 9.32134 170.886 9.32134C169.815 9.36827 168.465 8.94589 168.465 6.36463ZM172.329 8.00725V4.20577C172.049 4.1119 171.77 4.01804 171.165 4.01804C169.815 4.01804 169.303 5.19134 169.303 6.41156C169.303 7.96032 169.955 8.66429 170.932 8.66429C171.491 8.66429 172.049 8.19498 172.329 8.00725Z" fill="#4F4F4F"/>
<path d="M175.031 7.16247V3.45486H175.869V6.97475C175.869 7.86645 175.916 8.61736 176.986 8.61736C177.731 8.61736 178.569 8.05418 178.849 7.91338V3.50179H179.64V9.27441H178.849V8.61736C178.383 8.89895 177.731 9.4152 176.8 9.4152C175.171 9.36827 175.031 8.14804 175.031 7.16247Z" fill="#4F4F4F"/>
<path d="M181.176 6.36462C181.176 4.48735 182.247 3.31406 183.876 3.31406C184.667 3.31406 185.133 3.50178 185.459 3.64258L185.226 4.29962C184.9 4.15883 184.528 4.01803 183.876 4.01803C182.805 4.01803 182.06 4.8628 182.06 6.31769C182.06 7.86644 182.572 8.61735 184.202 8.61735C184.667 8.61735 185.086 8.47656 185.319 8.47656L185.459 9.1336C185.272 9.18053 184.714 9.32133 184.155 9.32133C182.06 9.32133 181.176 8.47656 181.176 6.36462Z" fill="#4F4F4F"/>
<path d="M186.994 7.63179V4.15883H186.156V3.45485H186.994V2.28156H187.786V3.45485H189.601V4.15883H187.832V7.63179C187.832 8.47656 188.065 8.61735 188.903 8.61735C189.229 8.61735 189.694 8.47656 189.787 8.47656L189.927 9.18054C189.741 9.22747 189.275 9.36826 188.903 9.36826C187.879 9.36826 186.994 9.32133 186.994 7.63179Z" fill="#4F4F4F"/>
<path d="M192.953 9.1336L193.093 8.42962C193.465 8.52349 194.024 8.66428 194.536 8.66428C195.42 8.66428 195.979 8.33576 195.979 7.77258C195.979 6.45849 193.093 6.88087 193.093 4.90974C193.093 3.87724 193.931 3.31406 195.048 3.31406C195.653 3.31406 196.212 3.50178 196.445 3.54872L196.305 4.20576C196.026 4.11189 195.607 3.9711 195.001 3.9711C194.257 3.9711 193.931 4.34656 193.931 4.81587C193.931 6.12996 196.817 5.80144 196.817 7.67871C196.817 8.99281 195.607 9.32133 194.676 9.32133C193.884 9.36826 193.279 9.22746 192.953 9.1336Z" fill="#4F4F4F"/>
<path d="M197.887 6.45849C197.887 4.1119 199.004 3.31406 200.447 3.31406C201.89 3.31406 202.542 4.29962 202.542 6.22383V6.55235H198.725C198.771 8.38269 199.656 8.71122 200.866 8.71122C201.285 8.71122 202.03 8.52349 202.309 8.47656L202.449 9.18054C202.263 9.2744 201.564 9.46213 200.633 9.46213C198.911 9.36826 197.887 8.66428 197.887 6.45849ZM201.658 5.89531C201.658 4.72201 201.239 3.92417 200.354 3.92417C199.47 3.92417 198.864 4.58122 198.771 5.89531H201.658Z" fill="#4F4F4F"/>
<path d="M203.984 3.45485H204.822V4.20576C205.055 3.78337 205.66 3.31406 206.452 3.31406C206.778 3.31406 207.01 3.36099 207.103 3.40792L206.964 4.1119C206.778 4.06496 206.638 4.01803 206.312 4.01803C205.614 4.01803 205.102 4.53428 204.822 4.95667V9.22747H203.984V3.45485Z" fill="#4F4F4F"/>
<path d="M207.805 1.67145L208.503 0.967468L209.201 1.67145L208.503 2.37542L207.805 1.67145ZM208.084 3.45485H208.922V9.22747H208.084V3.45485Z" fill="#4F4F4F"/>
<path d="M210.504 6.45849C210.504 4.1119 211.621 3.31406 213.064 3.31406C214.507 3.31406 215.159 4.29962 215.159 6.22383V6.55235H211.342C211.388 8.38269 212.273 8.71122 213.483 8.71122C213.902 8.71122 214.647 8.52349 214.926 8.47656L215.066 9.18054C214.88 9.2744 214.182 9.46213 213.251 9.46213C211.528 9.36826 210.504 8.66428 210.504 6.45849ZM214.228 5.89531C214.228 4.72201 213.809 3.92417 212.925 3.92417C212.04 3.92417 211.435 4.58122 211.342 5.89531H214.228Z" fill="#4F4F4F"/>
<path d="M216.137 9.1336L216.276 8.42962C216.649 8.52349 217.207 8.66428 217.72 8.66428C218.604 8.66428 219.163 8.33576 219.163 7.77258C219.163 6.45849 216.276 6.88087 216.276 4.90974C216.276 3.87724 217.114 3.31406 218.232 3.31406C218.837 3.31406 219.395 3.50178 219.628 3.54872L219.489 4.20576C219.209 4.11189 218.79 3.9711 218.185 3.9711C217.44 3.9711 217.114 4.34656 217.114 4.81587C217.114 6.12996 220.001 5.80144 220.001 7.67871C220.001 8.99281 218.79 9.32133 217.859 9.32133C217.068 9.36826 216.509 9.22746 216.137 9.1336Z" fill="#4F4F4F"/>
<rect y="4" width="59" height="3" fill="#4F4F4F"/>
</svg>
