<svg width="29" height="29" viewBox="0 0 29 29" fill="none" xmlns="http://www.w3.org/2000/svg">
<path d="M0 0V29H29V0H0ZM20.662 15.8003C21.2199 16.3413 21.824 16.8702 22.3359 17.4742C22.5608 17.7434 22.7583 18.0343 22.9254 18.3427C23.168 18.7915 22.9569 19.2864 22.5542 19.3131H20.0579C19.7631 19.3366 19.4668 19.2914 19.1924 19.1811C18.9179 19.0708 18.6728 18.8985 18.4762 18.6775C18.1365 18.3209 17.8114 17.9497 17.4839 17.5907C17.3529 17.4371 17.202 17.3017 17.0351 17.188C16.6955 16.9721 16.3995 17.0327 16.2127 17.3893C16.0326 17.7506 15.9427 18.1502 15.9507 18.5538C15.9192 19.1409 15.7324 19.2961 15.1453 19.3131C13.9126 19.4137 12.6775 19.1496 11.5937 18.5538C10.6446 17.9804 9.82643 17.2143 9.19199 16.3049C7.90623 14.5703 6.92856 12.6466 6.03823 10.6791C5.83688 10.2449 5.97758 9.9974 6.47248 9.9974C7.2779 9.98042 8.08332 9.98042 8.89844 9.9974C9.04702 9.99586 9.19214 10.0422 9.3123 10.1296C9.43246 10.217 9.52128 10.3408 9.56558 10.4826C10.0067 11.5622 10.5631 12.5911 11.2249 13.5514C11.3882 13.8143 11.5978 14.0452 11.8436 14.2331C12.1371 14.4345 12.3554 14.3738 12.4937 14.0488C12.5721 13.8451 12.6196 13.6309 12.6344 13.4132C12.7088 12.6599 12.6983 11.9006 12.6029 11.1497C12.5827 10.9381 12.4926 10.7392 12.3467 10.5846C12.2008 10.4299 12.0076 10.3283 11.7975 10.2958C11.5549 10.2497 11.5961 10.1575 11.7053 10.0338C11.7896 9.90759 11.9052 9.80545 12.0409 9.7374C12.1766 9.66936 12.3276 9.63774 12.4792 9.64564H15.286C15.7348 9.73783 15.827 9.94161 15.8901 10.3734V13.5054C15.8901 13.6752 15.9823 14.187 16.2928 14.2962C16.5354 14.3884 16.6955 14.187 16.8508 14.0318C17.492 13.3035 18.0247 12.4864 18.4325 11.6058C18.6169 11.2177 18.7867 10.815 18.9419 10.4122C18.984 10.2792 19.0695 10.1641 19.1847 10.0853C19.3 10.0066 19.4383 9.9688 19.5775 9.978H22.3043C22.3856 9.97448 22.467 9.98018 22.5469 9.99498C23.0127 10.0726 23.1364 10.274 22.9982 10.7228C22.7798 11.4215 22.3456 11.994 21.9113 12.5835C21.4771 13.173 20.9822 13.7965 20.5334 14.4418C20.121 15.0192 20.1501 15.3151 20.662 15.8003Z" fill="#4F4F4F"/>
</svg>
